
<svg xmlns="http://www.w3.org/2000/svg" version="1.1" xmlns:xlink="http://www.w3.org/1999/xlink" preserveAspectRatio="none" x="0px" y="0px" width="1885px" height="1031px" viewBox="0 0 1885 1031">
<defs>
<g id="Symbol_5_0_Layer0_0_FILL">
<path fill="#65BED2" stroke="none" d="
M -35.55 -1227.1
L -35.55 -173.4 1849.6 -173.4 1849.6 -1227.1 -35.55 -1227.1 Z"/>
</g>

<g id="Symbol_5_0_Layer0_1_FILL">
<path fill="#FFFBEC" stroke="none" d="
M 995.9 271.35
Q 986.15 261.6 972.35 261.6
L 172.75 261.6
Q 158.95 261.6 149.2 271.35 139.45 281.1 139.45 294.9
L 139.45 1072.55
Q 139.45 1086.35 149.2 1096.1 158.95 1105.85 172.75 1105.85
L 972.35 1105.85
Q 986.15 1105.85 995.9 1096.1 1005.65 1086.35 1005.65 1072.55
L 1005.65 294.9
Q 1005.65 281.1 995.9 271.35 Z"/>
</g>

<g id="Symbol_5_0_Layer0_2_FILL">
<path fill="#FFFBEC" stroke="none" d="
M 995.9 271.35
Q 986.15 261.6 972.35 261.6
L 172.75 261.6
Q 158.95 261.6 149.2 271.35 139.45 281.1 139.45 294.9
L 139.45 1072.55
Q 139.45 1086.35 149.2 1096.1 158.95 1105.85 172.75 1105.85
L 972.35 1105.85
Q 986.15 1105.85 995.9 1096.1 1005.65 1086.35 1005.65 1072.55
L 1005.65 294.9
Q 1005.65 281.1 995.9 271.35 Z"/>
</g>

<g id="Symbol_17_0_Layer0_0_FILL">
<path fill="#BC5913" stroke="none" d="
M 111 33.3
Q 111 19.5 101.25 9.75 91.5 0 77.7 0
L 21 0 21 866.2 77.7 866.2
Q 91.5 866.2 101.25 856.45 111 846.7 111 832.9
L 111 33.3 Z"/>
</g>

<g id="Symbol_16_0_Layer0_0_FILL">
<path fill="#FFA629" stroke="none" d="
M 0 703.1
Q 0 717.1 9.9 727 19.75 736.9 33.75 736.9
L 131.9 736.9 131.9 634.15 0 634.15 0 703.1 Z"/>

<path fill="#FF713F" stroke="none" d="
M 0.6 525.35
L 131.9 525.35 131.9 422.55 0.6 422.55 0.6 525.35 Z"/>

<path fill="#26A59A" stroke="none" d="
M 131.9 528.45
L 0.6 528.45 0.6 631.05 131.9 631.05 131.9 528.45 Z"/>

<path fill="#D4E062" stroke="none" d="
M 0.6 313.85
L 131.9 313.85 131.9 211.1 0.6 211.1 0.6 313.85 Z"/>

<path fill="#4DB7AD" stroke="none" d="
M 131.9 316.8
L 0.6 316.8 0.6 419.7 131.9 419.7 131.9 316.8 Z"/>

<path fill="#27C6D9" stroke="none" d="
M 131.9 105.45
L 0.6 105.45 0.6 208 131.9 208 131.9 105.45 Z"/>

<path fill="#F06290" stroke="none" d="
M 9.9 9.9
Q 0 19.75 0 33.75
L 0 102.4 131.9 102.4 131.9 0 33.75 0
Q 19.75 0 9.9 9.9 Z"/>
</g>

<g id="Symbol_16_0_Layer0_1_FILL">
<path fill="#FFFFFF" stroke="none" d="
M 1579.85 517.9
Q 1582.2 517.9 1582.2 515.25 1582.2 514.1 1581.15 512.95 1580.1 511.75 1575.15 511.75 1570.75 511.75 1562.25 513.05 1554.65 514.1 1546.8 514.1 1542.05 514.1 1540.9 514.85 1539.75 515.6 1539.75 517 1539.75 518.55 1540.8 519.3 1541.9 520 1544.75 520 1545.6 520 1551 519.6 1556.35 519.15 1557.1 519.15 1556.9 519.35 1555.8 528.6 1554.7 537.85 1554.7 542.5 1554.7 545.95 1555 548.05 1555.25 550.2 1556.65 551.1 1558 552 1558.9 552 1560.25 552 1561.15 550.8 1562 549.65 1562 548.15 1562 547.65 1561.85 547.3 1561.35 544.7 1561.35 542.65 1561.35 537.6 1562.3 529.2 1563.2 520.8 1563.4 519.8 1563.55 518.8 1563.8 518.55 1566.45 517.6 1573.4 517.6 1575.7 517.6 1577.4 517.7 1579.1 517.9 1579.85 517.9
M 1619.9 513.2
Q 1616.25 510.65 1610.05 510.65 1604.75 510.65 1597.35 512.35 1589.95 514.05 1589.95 516.35 1589.95 518.7 1591.75 519.6 1591.9 519.9 1591.9 522.15 1591.9 524.05 1590.65 534.15 1589.05 546.55 1589.05 548.75 1589.05 552.65 1592.4 552.65 1593.95 552.65 1594.85 551.45 1595.8 550.3 1595.8 548.8 1595.8 544.95 1596.45 538.6 1596.95 538.4 1600.5 537.7 1610.1 535.7 1616.85 531 1623.55 526.3 1623.55 520.05 1623.55 515.75 1619.9 513.2
M 1617.1 520.6
Q 1617.1 524.45 1611.1 527.8 1605.15 531.15 1597.3 532.45
L 1598.9 518.1
Q 1604.85 516.05 1609.85 516.05 1617.1 516.05 1617.1 520.6 Z"/>
</g>

<g id="Symbol_16_0_Layer0_2_FILL">
<path fill="#FFFFFF" stroke="none" d="
M 1584.9 618.05
Q 1584.9 616.9 1583.85 615.75 1582.8 614.55 1577.85 614.55 1573.45 614.55 1564.95 615.85 1557.35 616.9 1549.5 616.9 1544.75 616.9 1543.6 617.65 1542.45 618.4 1542.45 619.8 1542.45 621.35 1543.5 622.1 1544.6 622.8 1547.45 622.8 1548.3 622.8 1553.7 622.4 1559.05 621.95 1559.8 621.95 1559.6 622.15 1558.5 631.4 1557.4 640.65 1557.4 645.3 1557.4 648.75 1557.7 650.85 1557.95 653 1559.35 653.9 1560.7 654.8 1561.6 654.8 1562.95 654.8 1563.85 653.6 1564.7 652.45 1564.7 650.95 1564.7 650.45 1564.55 650.1 1564.05 647.5 1564.05 645.45 1564.05 640.4 1565 632 1565.9 623.6 1566.1 622.6 1566.25 621.6 1566.5 621.35 1569.15 620.4 1576.1 620.4 1578.4 620.4 1580.1 620.5 1581.8 620.7 1582.55 620.7 1584.9 620.7 1584.9 618.05
M 1617.7 613.9
L 1617.3 613.95
Q 1617.1 613.95 1612.95 614.5 1600.45 616.1 1598.2 616.1 1596.9 615.95 1595.6 615.95 1594.7 615.95 1593.6 616.55 1592.55 617.1 1592.45 617.7 1592.3 618 1592.3 618.45 1592.3 619.4 1592.8 620.3 1593.25 621.2 1593.4 621.35
L 1593.6 621.55
Q 1593.6 622.85 1592 634.45 1590.4 646.05 1589.3 649.45 1588.8 650.85 1588.85 651.1
L 1588.95 652
Q 1589.1 654 1590.1 654.95 1591.1 655.9 1593.3 655.9 1597.5 655.9 1602.3 654.85 1607.6 654.15 1611.35 653.95 1616.2 653.65 1618.95 652.4 1619.75 651.75 1619.75 650.5 1619.75 647.75 1616.3 647.25 1615.15 647.25 1611.4 648.05 1610.05 648.35 1604.45 649.05 1598.85 649.8 1597.55 649.8 1596.45 649.8 1596.3 648.75 1596.3 647.35 1596.9 643.8 1597.5 640.2 1597.75 639.7 1597.95 639.25 1598.4 639.1
L 1598.45 639.1
Q 1599.8 638.6 1607.4 637.7 1608.95 637.55 1610 637.4 1611.95 637.05 1613.55 636.9 1616.1 636.65 1617.3 635.9 1618.5 635.2 1618.5 633.3 1618.5 630.7 1614.2 630.7 1612.05 630.7 1608.1 631.7 1606.75 632 1603.45 632.35 1600.15 632.7 1598.4 632.7 1598.55 631.05 1599.25 628.45 1600.1 625 1600.25 623.6 1600.35 622.2 1600.6 621.95 1600.85 621.65 1604.05 621.1 1607.2 620.6 1611.6 620.35
L 1620 619.9
Q 1620.85 619.7 1621.75 618.7 1622.6 617.75 1622.6 617.1 1622.6 613.55 1617.7 613.9 Z"/>
</g>

<g id="Symbol_16_0_Layer0_3_FILL">
<path fill="#FFFFFF" stroke="none" d="
M 1595.65 716.55
Q 1595.65 715.7 1595.1 714.85 1594.6 714 1594 713.7 1593.35 713.4 1591.25 713.2 1589.15 713.05 1585.55 713.05 1578.8 713.05 1570.65 714.05 1561.3 715.4 1559.55 715.4 1558.2 715.4 1555.3 715.65 1552.35 715.85 1551.8 715.85
L 1547.05 715.85
Q 1542.15 715.85 1540.3 716.9 1538.5 717.9 1538.5 720.1 1538.5 722.85 1542.25 722.85 1542.55 722.85 1543 722.7 1545.25 721.95 1546.75 721.95 1548.45 721.95 1552.6 721.7 1552.6 722.2 1552.15 724.2 1551.8 725.75 1551.4 727.65 1551.4 727.7 1551.25 728.4 1548.55 742.85 1548.35 744.95 1548.2 745.9 1548.05 746.95 1547.4 750.85 1547.4 752 1547.4 755.95 1550.75 755.95 1552.5 755.95 1553.7 754.8 1554.9 753.6 1554.9 752
L 1554.9 749.65
Q 1554.9 747.35 1556.1 739.55 1557.3 731.7 1558 728.3
L 1558 728.35
Q 1558.45 726.2 1558.8 724.35 1558.9 723.55 1559.1 722.75 1559.3 721.95 1559.3 721.35 1559.3 720.9 1565.55 720.3 1568.05 720.05 1570.75 719.65 1575.75 718.95 1576.5 718.95
L 1575.5 725.4
Q 1574.15 733.75 1573.1 741.6 1572 749.5 1572 751 1572 754.8 1575.25 754.8 1577 754.8 1578.25 753.75 1579.45 752.7 1579.45 751.1
L 1579.45 747.85
Q 1579.45 745.6 1580 742.35 1580.2 741.3 1580.45 738 1580.7 735.05 1581.3 731.9 1581.65 729.75 1582.25 724.9 1582.95 718.7 1583.05 718.7 1586.1 718.7 1588.45 719 1590.75 719.3 1592.2 719.3 1593.85 719.3 1594.75 718.55 1595.65 717.7 1595.65 716.55
M 1605.4 716.4
Q 1604.1 716.25 1602.8 716.25 1601.9 716.25 1600.8 716.85 1599.75 717.4 1599.65 718 1599.5 718.3 1599.5 718.75 1599.5 719.7 1600 720.6 1600.45 721.5 1600.6 721.65
L 1600.8 721.85
Q 1600.8 723.15 1599.2 734.75 1597.6 746.35 1596.5 749.75 1596 751.15 1596.05 751.4
L 1596.15 752.3
Q 1596.3 754.3 1597.3 755.25 1598.3 756.2 1600.5 756.2 1604.7 756.2 1609.5 755.15 1614.8 754.45 1618.55 754.25 1623.4 753.95 1626.15 752.7 1626.95 752.05 1626.95 750.8 1626.95 748.05 1623.5 747.55 1622.35 747.55 1618.6 748.35 1617.25 748.65 1611.65 749.35 1606.05 750.1 1604.75 750.1 1603.65 750.1 1603.5 749.05 1603.5 747.65 1604.1 744.1 1604.7 740.5 1604.95 740 1605.15 739.55 1605.6 739.4
L 1605.65 739.4
Q 1607 738.9 1614.6 738 1616.15 737.85 1617.2 737.7 1619.15 737.35 1620.75 737.2 1623.3 736.95 1624.5 736.2 1625.7 735.5 1625.7 733.6 1625.7 731 1621.4 731 1619.25 731 1615.3 732 1613.95 732.3 1610.65 732.65 1607.35 733 1605.6 733 1605.75 731.35 1606.45 728.75 1607.3 725.3 1607.45 723.9 1607.55 722.5 1607.8 722.25 1608.05 721.95 1611.25 721.4 1614.4 720.9 1618.8 720.65
L 1627.2 720.2
Q 1628.05 720 1628.95 719 1629.8 718.05 1629.8 717.4 1629.8 713.85 1624.9 714.2
L 1624.5 714.25
Q 1624.3 714.25 1620.15 714.8 1607.65 716.4 1605.4 716.4 Z"/>
</g>

<g id="Symbol_16_0_Layer0_4_FILL">
<path fill="#FFFFFF" stroke="none" d="
M 1587 816
Q 1584.9 815.85 1581.3 815.85 1574.55 815.85 1566.4 816.85 1557.05 818.2 1555.3 818.2 1553.95 818.2 1551.05 818.45 1548.1 818.65 1547.55 818.65
L 1542.8 818.65
Q 1537.9 818.65 1536.05 819.7 1534.25 820.7 1534.25 822.9 1534.25 825.65 1538 825.65 1538.3 825.65 1538.75 825.5 1541 824.75 1542.5 824.75 1544.2 824.75 1548.35 824.5 1548.35 825 1547.9 827 1547.55 828.55 1547.15 830.45 1547.15 830.5 1547 831.2 1544.3 845.65 1544.1 847.75 1543.95 848.7 1543.8 849.75 1543.15 853.65 1543.15 854.8 1543.15 858.75 1546.5 858.75 1548.25 858.75 1549.45 857.6 1550.65 856.4 1550.65 854.8
L 1550.65 852.45
Q 1550.65 850.15 1551.85 842.35 1553.05 834.5 1553.75 831.1
L 1553.75 831.15
Q 1554.2 829 1554.55 827.15 1554.65 826.35 1554.85 825.55 1555.05 824.75 1555.05 824.15 1555.05 823.7 1561.3 823.1 1563.8 822.85 1566.5 822.45 1571.5 821.75 1572.25 821.75
L 1571.25 828.2
Q 1569.9 836.55 1568.85 844.4 1567.75 852.3 1567.75 853.8 1567.75 857.6 1571 857.6 1572.75 857.6 1574 856.55 1575.2 855.5 1575.2 853.9
L 1575.2 850.65
Q 1575.2 848.4 1575.75 845.15 1575.95 844.1 1576.2 840.8 1576.45 837.85 1577.05 834.7 1577.4 832.55 1578 827.7 1578.7 821.5 1578.8 821.5 1581.85 821.5 1584.2 821.8 1586.5 822.1 1587.95 822.1 1589.6 822.1 1590.5 821.35 1591.4 820.5 1591.4 819.35 1591.4 818.5 1590.85 817.65 1590.35 816.8 1589.75 816.5 1589.1 816.2 1587 816
M 1620.9 850.1
Q 1622.8 854.3 1624.95 856.7 1627.05 859.1 1629.15 859.1 1630.65 859.1 1631.75 858.1 1632.85 857.05 1632.85 855.55 1632.85 854.75 1632.55 854.25 1632.2 853.75 1630.8 852.35 1627.95 849.5 1625.15 843.15 1622.3 836.85 1617.3 821.55 1617.5 820.9 1617.5 819.85 1617.5 818.4 1616.95 818 1615.9 816.8 1613.6 816.8 1612.15 816.8 1610.8 818.65 1609.4 820.5 1603.2 831.85 1600.1 837.45 1596.35 843.15 1589.5 853.6 1589.5 854.65 1589.5 855.8 1590.85 856.9 1592.25 857.95 1593.2 857.95 1593.95 857.95 1594.85 857.55 1595.8 857.05 1598.2 853.15 1600.6 849.2 1601.05 848.05 1601.6 848.55 1602.7 848.55 1603.3 848.55 1604.1 848.3 1607.15 847.35 1612.3 846.3 1617.35 845.25 1618.85 845.25 1619 845.25 1619 845.35 1619 845.9 1620.9 850.1
M 1612.5 827.05
Q 1612.6 827.3 1612.9 828.2 1616.15 838.1 1616.8 839.7 1615.6 839.9 1614.4 840.15 1609.45 841.15 1608.25 841.3 1606.45 841.55 1604.75 841.85
L 1612.5 827.05 Z"/>
</g>

<g id="Symbol_16_0_Layer0_5_FILL">
<path fill="#FFFFFF" stroke="none" d="
M 1557.05 919.7
Q 1554.85 919.7 1553.25 919.55 1551.65 919.4 1550.9 919.4 1546.95 919.4 1546.7 923.15 1546.65 923.25 1546.6 923.3 1545.15 924.45 1545.15 925.5 1545.15 926.95 1546.15 927.55 1548.55 929.3 1553.75 933.7 1558.95 938.1 1559.1 938.6 1559.05 939.55 1553.8 943.65 1549.95 946.6 1545.85 950.4 1541.7 954.1 1541 955.5 1540.3 956.85 1540.3 958.05 1540.7 960.95 1544 960.95 1545.75 960.95 1547.85 960.65
L 1555.8 959.8
Q 1563.1 959.1 1565.85 959.2 1571.9 959.4 1573.15 959.4 1574.3 959.4 1575.15 958.4 1575.9 957.45 1575.9 956.2 1575.9 955.15 1575.1 954.1 1574.2 953.1 1571.9 953.25 1569 953.5 1562.75 953.5 1559.85 953.5 1555.85 954.2 1551.6 954.85 1549.35 954.9 1551.4 952.9 1559.95 946.2 1561.5 944.95 1562.65 943.9 1563.65 942.95 1564.5 942.25 1567.2 940 1567.2 938.75 1567.05 938.05 1566.45 937.2 1565.85 936.4 1562.6 933.5 1559.35 930.6 1557.8 929.4 1556.2 928.1 1554.15 926.2
L 1553.1 925.25
Q 1557.35 925.4 1562.45 925.2 1567.55 924.95 1567.65 924.95 1572.35 924.7 1576 924.7 1577.9 924.7 1578.6 921.7 1578.6 918.95 1573.75 918.95 1572.9 918.95 1565.7 919.3 1558.55 919.7 1557.05 919.7
M 1621.1 961.9
Q 1622.6 961.9 1623.7 960.9 1624.8 959.85 1624.8 958.35 1624.8 957.55 1624.5 957.05 1624.15 956.55 1622.75 955.15 1619.9 952.3 1617.1 945.95 1614.25 939.65 1609.25 924.35 1609.45 923.7 1609.45 922.65 1609.45 921.2 1608.9 920.8 1607.85 919.6 1605.55 919.6 1604.1 919.6 1602.75 921.45 1601.35 923.3 1595.15 934.65 1592.05 940.25 1588.3 945.95 1581.45 956.4 1581.45 957.45 1581.45 958.6 1582.8 959.7 1584.2 960.75 1585.15 960.75 1585.9 960.75 1586.8 960.35 1587.75 959.85 1590.15 955.95 1592.55 952 1593 950.85 1593.55 951.35 1594.65 951.35 1595.25 951.35 1596.05 951.1 1599.1 950.15 1604.25 949.1 1609.3 948.05 1610.8 948.05 1610.95 948.05 1610.95 948.15 1610.95 948.7 1612.85 952.9 1614.75 957.1 1616.9 959.5 1619 961.9 1621.1 961.9
M 1604.45 929.85
Q 1604.55 930.1 1604.85 931 1608.1 940.9 1608.75 942.5 1607.55 942.7 1606.35 942.95 1601.4 943.95 1600.2 944.1 1598.4 944.35 1596.7 944.65
L 1604.45 929.85 Z"/>
</g>

<g id="Symbol_16_0_Layer0_6_FILL">
<path fill="#FFFFFF" stroke="none" d="
M 1551.5 1023.75
Q 1549.45 1023.75 1548.5 1025.8 1547.5 1027.85 1546.1 1041.6 1544.45 1057.95 1543.85 1060.65 1543.55 1061.85 1543.55 1062.5 1543.55 1064 1544.4 1064.95 1545.25 1065.9 1546.85 1065.9 1548.75 1065.9 1549.55 1064.25 1550.35 1062.65 1550.7 1059.1 1551.45 1050.25 1552.7 1049.9 1554.4 1050.65 1558 1053.35
L 1568.6 1061.1
Q 1573.25 1064.5 1576.05 1064.5 1578.2 1064.5 1579.25 1063.3 1580.35 1062.05 1580.35 1060.15 1580.35 1059.7 1580.05 1058.6 1575.45 1058.3 1573.95 1057.4
L 1572.7 1056.55
Q 1571.35 1055.75 1569.95 1054.7
L 1558.55 1046.05 1568.9 1036.9
Q 1571.95 1034.15 1573.45 1032.05 1574.9 1029.95 1574.9 1028.85 1574.9 1027.45 1573.55 1026.3 1572.1 1025.15 1570.95 1025.15 1569.95 1025.15 1569.05 1026.2 1568.2 1027.2 1566.8 1029.7 1565.8 1031.45 1563.7 1033.55 1561.6 1035.6 1559.7 1037.4 1558.7 1038.35 1558.05 1039 1556.35 1040.85 1552.45 1043.8 1553.25 1034.65 1554.95 1027.6 1554.95 1023.75 1551.5 1023.75
M 1621.7 1028.9
Q 1622.15 1028.9 1622.5 1029.4 1624.4 1032.15 1626.1 1032.15 1627.65 1032.15 1628.6 1031.35 1629.5 1030.55 1629.5 1029.3 1629.5 1027.6 1626.95 1025.2 1624.45 1022.8 1622.05 1022.8 1615.95 1022.8 1609.45 1032.45 1609 1033.1 1608.5 1033.7 1607.3 1035.3 1605.05 1039.2 1604.5 1037.65 1604.05 1036.1 1603.45 1034.15 1601.7 1030.55 1599.95 1026.95 1597.35 1025.2 1594.7 1023.4 1592.5 1023.4 1588.95 1023.4 1586.1 1024.8 1583.2 1026.2 1583.2 1028.15 1583.2 1029.25 1584.2 1030.25 1585.15 1031.15 1586.65 1031.15 1587.55 1031.15 1588.2 1030.7 1589.75 1029.65 1591.75 1029.65 1594.3 1029.65 1597.2 1036.6 1600.15 1043.45 1600.15 1048.35 1600.15 1051.3 1599.5 1054.1 1599.35 1055.05 1599.05 1057.65 1598.8 1059.65 1598.55 1060.25 1598.15 1061.55 1598.15 1062.9 1598.15 1064.1 1599.3 1065.25 1600.4 1066.4 1602.15 1066.4 1606.05 1066.4 1606.2 1060 1606.35 1054 1606.9 1050.6 1607.4 1047.15 1608.15 1045.5 1608.85 1043.8 1611.25 1040.2 1613.6 1036.6 1614.95 1035.2 1615.8 1034.35 1616.75 1033.25 1620.6 1028.9 1621.7 1028.9 Z"/>
</g>

<g id="Symbol_16_0_Layer0_7_FILL">
<path fill="#FFFFFF" stroke="none" d="
M 1582.4 444.5
Q 1581.75 443.4 1581.2 442.25 1580.7 441.15 1580.25 439.85 1579.7 438.5 1579.3 437.1 1578.8 435.75 1578.45 434.5 1578.05 433.2 1577.85 432.3 1577.1 429 1575.95 425.7 1574.8 422.4 1573.75 419.15 1573.6 418.75 1573.35 418.1 1573.1 417.4 1572.7 416.55 1572.35 415.7 1571.8 414.8 1571.3 413.95 1570.65 413.2 1570 412.5 1569.2 412.05 1568.4 411.6 1567.45 411.6 1567.2 411.6 1566.65 411.75 1566.1 411.9 1565.55 412.15 1564.95 412.4 1564.5 412.75 1563.95 413.1 1563.8 413.45 1563.75 413.65 1563.7 413.95 1563.65 414.2 1563.65 414.35 1563.3 414.55 1562.8 415.25 1562.3 415.95 1561.8 416.8 1561.3 417.6 1560.85 418.4 1560.45 419.15 1560.25 419.55 1559.95 420.1 1559.55 420.75 1559.2 421.35 1558.75 422.05 1558.35 422.65 1557.95 423.25 1557.55 423.85 1557.15 424.3 1556.95 424.6 1556.45 425.25 1555.95 425.9 1555.3 426.8 1554.65 427.65 1553.85 428.7 1553.1 429.75 1552.3 430.8 1551.5 431.8 1550.75 432.85 1549.95 433.8 1549.3 434.65 1548.4 435.75 1547.4 437 1546.4 438.25 1545.4 439.6 1544.4 440.9 1543.5 442.25 1542.6 443.6 1541.9 444.9 1541.2 446.2 1540.8 447.4 1540.4 448.5 1540.4 449.5 1540.4 450.05 1540.6 450.65 1540.85 451.25 1541.25 451.7 1541.65 452.2 1542.3 452.5 1542.9 452.8 1543.7 452.8 1543.9 452.8 1544.2 452.75 1544.55 452.7 1544.95 452.55 1545.3 452.45 1545.7 452.35 1546.1 452.15 1546.35 452 1546.35 452.6 1546.7 453.1 1547 453.6 1547.5 453.95 1548 454.25 1548.6 454.45 1549.25 454.65 1549.85 454.65 1551.9 454.65 1554.75 454.35 1557.6 454 1561 453.55 1561.15 453.55 1561.6 453.5 1562 453.45 1562.5 453.4 1563 453.35 1563.45 453.3 1563.9 453.25 1564 453.2 1565.2 453.05 1566.7 452.95 1568.2 452.8 1569.7 452.7 1571.15 452.55 1572.45 452.45 1573.8 452.4 1574.65 452.4 1575.4 452.4 1576.5 452.45 1577.6 452.55 1578.65 452.65 1579.7 452.75 1580.55 452.85 1581.4 452.95 1581.65 452.95 1582.35 452.95 1582.95 452.8 1583.55 452.7 1584 452.35 1584.45 452 1584.7 451.5 1584.95 450.9 1584.95 450.05 1584.95 449.25 1584.6 448.35 1584.2 447.45 1583.65 446.5 1583.1 445.5 1582.4 444.5
M 1552.3 441.75
Q 1552.6 441.3 1553.05 440.8 1553.4 440.3 1553.8 439.75 1553.85 439.7 1554.3 439.05 1554.8 438.4 1555.5 437.4 1556.15 436.4 1557.05 435.15 1557.95 433.9 1558.9 432.6 1559.8 431.3 1560.65 430.05 1561.55 428.8 1562.25 427.85 1562.9 426.8 1563.4 426.2 1563.85 425.55 1563.85 425.5 1564.3 424.85 1564.75 424.35 1565.1 423.85 1565.5 423.3 1565.9 422.7 1566.35 421.95 1566.75 421.15 1567.25 419.9 1568.35 422 1569.05 424.45 1569.7 426.85 1570.35 429.7 1570.75 431.45 1571.2 433.4 1571.65 435.25 1572.3 437.35 1572.95 439.45 1573.8 441.8 1574.7 444.1 1575.9 446.65 1575.7 446.6 1575.35 446.6 1575 446.6 1573.95 446.6 1573.65 446.6 1573.45 446.6 1573.25 446.6 1573.05 446.65 1571.95 446.75 1570.75 446.85 1569.5 446.9 1568.45 446.95 1567.35 446.95 1566.55 447 1565.75 447 1565.5 447.05 1564.45 447.15 1563.1 447.3 1561.8 447.45 1560.4 447.55 1558.95 447.7 1557.6 447.85 1556.25 448 1555.2 448.1 1554.1 448.15 1553.4 448.25 1552.7 448.3 1552.6 448.3 1552.4 448.3 1551.85 448.2 1551.3 448.15 1550.9 448.15 1550.65 448.15 1550.25 448.2 1549.85 448.3 1549.4 448.45 1548.9 448.6 1548.45 448.85 1547.95 449.05 1547.55 449.45 1548 448.3 1548.55 447.35 1549.05 446.4 1549.65 445.5 1550.2 444.6 1550.9 443.7 1551.55 442.8 1552.3 441.75
M 1617.15 413.9
Q 1604.65 415.5 1602.4 415.5 1601.1 415.35 1599.8 415.35 1598.9 415.35 1597.8 415.95 1596.75 416.5 1596.65 417.1 1596.5 417.4 1596.5 417.85 1596.5 418.8 1597 419.7 1597.45 420.6 1597.6 420.75
L 1597.8 420.95
Q 1597.8 422.25 1596.2 433.85 1594.6 445.45 1593.5 448.85 1593 450.25 1593.05 450.5
L 1593.15 451.4
Q 1593.3 453.4 1594.3 454.35 1595.3 455.3 1597.5 455.3 1601.7 455.3 1606.5 454.25 1611.8 453.55 1615.55 453.35 1620.4 453.05 1623.15 451.8 1623.95 451.15 1623.95 449.9 1623.95 447.15 1620.5 446.65 1619.35 446.65 1615.6 447.45 1614.25 447.75 1608.65 448.45 1603.05 449.2 1601.75 449.2 1600.65 449.2 1600.5 448.15 1600.5 446.75 1601.1 443.2 1601.7 439.6 1601.95 439.1 1602.15 438.65 1602.6 438.5
L 1602.65 438.5
Q 1604 438 1611.6 437.1 1613.15 436.95 1614.2 436.8 1616.15 436.45 1617.75 436.3 1620.3 436.05 1621.5 435.3 1622.7 434.6 1622.7 432.7 1622.7 430.1 1618.4 430.1 1616.25 430.1 1612.3 431.1 1610.95 431.4 1607.65 431.75 1604.35 432.1 1602.6 432.1 1602.75 430.45 1603.45 427.85 1604.3 424.4 1604.45 423 1604.55 421.6 1604.8 421.35 1605.05 421.05 1608.25 420.5 1611.4 420 1615.8 419.75
L 1624.2 419.3
Q 1625.05 419.1 1625.95 418.1 1626.8 417.15 1626.8 416.5 1626.8 412.95 1621.9 413.3
L 1621.5 413.35
Q 1621.3 413.35 1617.15 413.9 Z"/>
</g>

<g id="Symbol_19_0_Layer0_0_FILL">
<path fill="#707DAB" stroke="none" d="
M 48.7 0
Q 48.7 0.05 48.65 0.1
L 48.65 0 38.25 0
Q 38.203125 0.140625 38.2 0.25
L 38.2 0 33.95 0
Q 19.9 0 9.95 9.9 0 19.75 0 33.75
L 0 105.3 118.45 105.3 118.45 0 48.7 0 Z"/>

<path fill="#6D9367" stroke="none" d="
M 239.55 105.4
L 239.55 0 121.35 0 121.35 105.4 239.55 105.4 Z"/>

<path fill="#FF713F" stroke="none" d="
M 360.9 105.4
L 360.9 0 242.45 0 242.45 105.4 360.9 105.4 Z"/>

<path fill="#27C6D9" stroke="none" d="
M 481.8 0
L 363.5 0 363.5 105.4 481.8 105.4 481.8 0 Z"/>

<path fill="#F06290" stroke="none" d="
M 593.25 9.9
Q 583.3 0 569.2 0
L 564.95 0 564.95 0.25
Q 564.946875 0.140625 564.9 0
L 554.5 0 554.5 0.1
Q 554.45 0.05 554.45 0
L 484.5 0 484.5 105.3 603.2 105.3 603.2 33.75
Q 603.2 19.75 593.25 9.9 Z"/>
</g>

<g id="Symbol_21_0_Layer0_0_FILL">
<path fill="#2E95A6" stroke="none" d="
M 375.15 112.35
Q 366.05 112.35 357.75 114.1 354.5 97.95 344.55 84.8 334.55 71.65 319.9 64.2 305.2 56.75 288.7 56.45 272.2 56.15 257.25 63.1 250.6 44.8 237.5 30.6 224.8 16.95 207.8 9 190.85 1.05 172.2 0.1 152.9 -0.9 134.6 5.75 116.3 12.4 102.15 25.55 88.45 38.25 80.5 55.2 72.6 72.2 71.6 90.85 70.6 110.15 77.25 128.45 61.2 128.95 46.75 135.55 32.75 141.9 22.1 153.1 11.45 164.3 5.7 178.55 -0.2 193.35 0 209.4 0.25 225.45 6.6 240.05 12.75 254.15 23.75 265 34.75 275.85 48.9 281.8 63.6 288 79.65 288
L 375.15 288
Q 393 288 409.35 281.1 425.1 274.45 437.25 262.3 449.45 250.15 456.1 234.4 463 218.05 463 200.2 463 182.3 456.1 166 449.45 150.25 437.25 138.05 425.1 125.9 409.35 119.25 393 112.35 375.15 112.35 Z"/>
</g>

<g id="Symbol_21_0_Layer0_1_FILL">
<path fill="#2E95A6" stroke="none" d="
M 553.3 -121.1
L 553.25 -121.1
Q 551.5 -121.1 550.25 -119.9 549.05 -118.65 549.05 -116.9
L 549.05 -96
Q 549.05 -94.25 550.25 -93.05 551.5 -91.8 553.25 -91.8
L 553.3 -91.8
Q 555.05 -91.8 556.25 -93.05 557.5 -94.25 557.5 -96
L 557.5 -116.9
Q 557.5 -118.65 556.25 -119.9 555.05 -121.1 553.3 -121.1 Z"/>
</g>

<g id="Symbol_21_0_Layer0_2_FILL">
<path fill="#2E95A6" stroke="none" d="
M 553.3 -121.1
L 553.25 -121.1
Q 551.5 -121.1 550.25 -119.9 549.05 -118.65 549.05 -116.9
L 549.05 -96
Q 549.05 -94.25 550.25 -93.05 551.5 -91.8 553.25 -91.8
L 553.3 -91.8
Q 555.05 -91.8 556.25 -93.05 557.5 -94.25 557.5 -96
L 557.5 -116.9
Q 557.5 -118.65 556.25 -119.9 555.05 -121.1 553.3 -121.1 Z"/>
</g>

<g id="Symbol_21_0_Layer0_3_FILL">
<path fill="#2E95A6" stroke="none" d="
M 553.3 -121.1
L 553.25 -121.1
Q 551.5 -121.1 550.25 -119.9 549.05 -118.65 549.05 -116.9
L 549.05 -96
Q 549.05 -94.25 550.25 -93.05 551.5 -91.8 553.25 -91.8
L 553.3 -91.8
Q 555.05 -91.8 556.25 -93.05 557.5 -94.25 557.5 -96
L 557.5 -116.9
Q 557.5 -118.65 556.25 -119.9 555.05 -121.1 553.3 -121.1 Z"/>
</g>

<g id="Symbol_21_0_Layer0_4_FILL">
<path fill="#2E95A6" stroke="none" d="
M 553.3 -121.1
L 553.25 -121.1
Q 551.5 -121.1 550.25 -119.9 549.05 -118.65 549.05 -116.9
L 549.05 -96
Q 549.05 -94.25 550.25 -93.05 551.5 -91.8 553.25 -91.8
L 553.3 -91.8
Q 555.05 -91.8 556.25 -93.05 557.5 -94.25 557.5 -96
L 557.5 -116.9
Q 557.5 -118.65 556.25 -119.9 555.05 -121.1 553.3 -121.1 Z"/>
</g>

<g id="Symbol_21_0_Layer0_5_FILL">
<path fill="#2E95A6" stroke="none" d="
M 553.3 -121.1
L 553.25 -121.1
Q 551.5 -121.1 550.25 -119.9 549.05 -118.65 549.05 -116.9
L 549.05 -96
Q 549.05 -94.25 550.25 -93.05 551.5 -91.8 553.25 -91.8
L 553.3 -91.8
Q 555.05 -91.8 556.25 -93.05 557.5 -94.25 557.5 -96
L 557.5 -116.9
Q 557.5 -118.65 556.25 -119.9 555.05 -121.1 553.3 -121.1 Z"/>
</g>

<g id="Symbol_21_0_Layer0_6_FILL">
<path fill="#2E95A6" stroke="none" d="
M 553.3 -121.1
L 553.25 -121.1
Q 551.5 -121.1 550.25 -119.9 549.05 -118.65 549.05 -116.9
L 549.05 -96
Q 549.05 -94.25 550.25 -93.05 551.5 -91.8 553.25 -91.8
L 553.3 -91.8
Q 555.05 -91.8 556.25 -93.05 557.5 -94.25 557.5 -96
L 557.5 -116.9
Q 557.5 -118.65 556.25 -119.9 555.05 -121.1 553.3 -121.1 Z"/>
</g>

<g id="Symbol_21_0_Layer0_7_FILL">
<path fill="#2E95A6" stroke="none" d="
M 553.3 -121.1
L 553.25 -121.1
Q 551.5 -121.1 550.25 -119.9 549.05 -118.65 549.05 -116.9
L 549.05 -96
Q 549.05 -94.25 550.25 -93.05 551.5 -91.8 553.25 -91.8
L 553.3 -91.8
Q 555.05 -91.8 556.25 -93.05 557.5 -94.25 557.5 -96
L 557.5 -116.9
Q 557.5 -118.65 556.25 -119.9 555.05 -121.1 553.3 -121.1 Z"/>
</g>

<g id="Symbol_21_0_Layer0_8_FILL">
<path fill="#2E95A6" stroke="none" d="
M 553.3 -121.1
L 553.25 -121.1
Q 551.5 -121.1 550.25 -119.9 549.05 -118.65 549.05 -116.9
L 549.05 -96
Q 549.05 -94.25 550.25 -93.05 551.5 -91.8 553.25 -91.8
L 553.3 -91.8
Q 555.05 -91.8 556.25 -93.05 557.5 -94.25 557.5 -96
L 557.5 -116.9
Q 557.5 -118.65 556.25 -119.9 555.05 -121.1 553.3 -121.1 Z"/>
</g>

<g id="Symbol_21_0_Layer0_9_FILL">
<path fill="#2E95A6" stroke="none" d="
M 553.3 -121.1
L 553.25 -121.1
Q 551.5 -121.1 550.25 -119.9 549.05 -118.65 549.05 -116.9
L 549.05 -96
Q 549.05 -94.25 550.25 -93.05 551.5 -91.8 553.25 -91.8
L 553.3 -91.8
Q 555.05 -91.8 556.25 -93.05 557.5 -94.25 557.5 -96
L 557.5 -116.9
Q 557.5 -118.65 556.25 -119.9 555.05 -121.1 553.3 -121.1 Z"/>
</g>

<g id="Symbol_21_0_Layer0_10_FILL">
<path fill="#2E95A6" stroke="none" d="
M 553.3 -121.1
L 553.25 -121.1
Q 551.5 -121.1 550.25 -119.9 549.05 -118.65 549.05 -116.9
L 549.05 -96
Q 549.05 -94.25 550.25 -93.05 551.5 -91.8 553.25 -91.8
L 553.3 -91.8
Q 555.05 -91.8 556.25 -93.05 557.5 -94.25 557.5 -96
L 557.5 -116.9
Q 557.5 -118.65 556.25 -119.9 555.05 -121.1 553.3 -121.1 Z"/>
</g>

<g id="Symbol_5_0_Layer0_8_FILL">
<path fill="#43C2E3" stroke="none" d="
M 812.6 97.5
Q 814.05 94 814.05 90.25 814.05 86.45 812.6 83 811.2 79.65 808.6 77.05 806 74.45 802.65 73.05 799.2 71.6 795.4 71.6 793.5 71.6 791.7 71.95 791.05 68.55 788.9 65.75 786.8 62.95 783.7 61.35 780.55 59.8 777.05 59.75 773.55 59.65 770.4 61.15 769 57.25 766.2 54.25 763.5 51.35 759.9 49.65 756.3 47.95 752.35 47.75 748.25 47.55 744.35 48.95 740.5 50.4 737.5 53.15 734.55 55.85 732.9 59.45 731.2 63.05 731 67.05 730.8 71.1 732.2 75 728.8 75.1 725.7 76.5 722.75 77.85 720.5 80.25 718.25 82.6 717 85.65 715.75 88.8 715.8 92.2 715.85 95.6 717.2 98.7 718.5 101.7 720.85 104 723.15 106.3 726.2 107.55 729.3 108.85 732.7 108.85
L 795.4 108.85
Q 799.2 108.85 802.65 107.4 806 106 808.6 103.4 811.2 100.85 812.6 97.5 Z"/>
</g>

<g id="Symbol_5_0_Layer0_8_MEMBER_0_FILL">
<path fill="#43C2E3" stroke="none" d="
M 744.15 123.25
Q 744.15 121.85 743.15 120.85 742.2 119.9 740.8 119.9 739.4 119.9 738.4 120.85 737.45 121.85 737.45 123.25 737.45 124.65 738.4 125.6 739.4 126.6 740.8 126.6 742.2 126.6 743.15 125.6 744.15 124.65 744.15 123.25 Z"/>
</g>

<g id="Symbol_5_0_Layer0_8_MEMBER_1_FILL">
<path fill="#43C2E3" stroke="none" d="
M 744.15 123.25
Q 744.15 121.85 743.15 120.85 742.2 119.9 740.8 119.9 739.4 119.9 738.4 120.85 737.45 121.85 737.45 123.25 737.45 124.65 738.4 125.6 739.4 126.6 740.8 126.6 742.2 126.6 743.15 125.6 744.15 124.65 744.15 123.25 Z"/>
</g>

<g id="Symbol_5_0_Layer0_8_MEMBER_2_FILL">
<path fill="#43C2E3" stroke="none" d="
M 744.15 123.25
Q 744.15 121.85 743.15 120.85 742.2 119.9 740.8 119.9 739.4 119.9 738.4 120.85 737.45 121.85 737.45 123.25 737.45 124.65 738.4 125.6 739.4 126.6 740.8 126.6 742.2 126.6 743.15 125.6 744.15 124.65 744.15 123.25 Z"/>
</g>

<g id="Symbol_5_0_Layer0_8_MEMBER_3_FILL">
<path fill="#43C2E3" stroke="none" d="
M 744.15 123.25
Q 744.15 121.85 743.15 120.85 742.2 119.9 740.8 119.9 739.4 119.9 738.4 120.85 737.45 121.85 737.45 123.25 737.45 124.65 738.4 125.6 739.4 126.6 740.8 126.6 742.2 126.6 743.15 125.6 744.15 124.65 744.15 123.25 Z"/>
</g>

<g id="Symbol_5_0_Layer0_8_MEMBER_4_FILL">
<path fill="#43C2E3" stroke="none" d="
M 744.15 123.25
Q 744.15 121.85 743.15 120.85 742.2 119.9 740.8 119.9 739.4 119.9 738.4 120.85 737.45 121.85 737.45 123.25 737.45 124.65 738.4 125.6 739.4 126.6 740.8 126.6 742.2 126.6 743.15 125.6 744.15 124.65 744.15 123.25 Z"/>
</g>

<g id="Symbol_5_0_Layer0_8_MEMBER_5_FILL">
<path fill="#43C2E3" stroke="none" d="
M 744.15 123.25
Q 744.15 121.85 743.15 120.85 742.2 119.9 740.8 119.9 739.4 119.9 738.4 120.85 737.45 121.85 737.45 123.25 737.45 124.65 738.4 125.6 739.4 126.6 740.8 126.6 742.2 126.6 743.15 125.6 744.15 124.65 744.15 123.25 Z"/>
</g>

<g id="Symbol_5_0_Layer0_8_MEMBER_6_FILL">
<path fill="#43C2E3" stroke="none" d="
M 744.15 123.25
Q 744.15 121.85 743.15 120.85 742.2 119.9 740.8 119.9 739.4 119.9 738.4 120.85 737.45 121.85 737.45 123.25 737.45 124.65 738.4 125.6 739.4 126.6 740.8 126.6 742.2 126.6 743.15 125.6 744.15 124.65 744.15 123.25 Z"/>
</g>

<g id="Symbol_22_0_Layer0_0_FILL">
<path fill="#2E95A6" stroke="none" d="
M 375.15 112.35
Q 366.05 112.35 357.75 114.1 354.5 97.95 344.55 84.8 334.55 71.65 319.9 64.2 305.2 56.75 288.7 56.45 272.2 56.15 257.25 63.1 250.6 44.8 237.5 30.6 224.8 16.95 207.8 9 190.85 1.05 172.2 0.1 152.9 -0.9 134.6 5.75 116.3 12.4 102.15 25.55 88.45 38.25 80.5 55.2 72.6 72.2 71.6 90.85 70.6 110.15 77.25 128.45 61.2 128.95 46.75 135.55 32.75 141.9 22.1 153.1 11.45 164.3 5.7 178.55 -0.2 193.35 0 209.4 0.25 225.45 6.6 240.05 12.75 254.15 23.75 265 34.75 275.85 48.9 281.8 63.6 288 79.65 288
L 375.15 288
Q 393 288 409.35 281.1 425.1 274.45 437.25 262.3 449.45 250.15 456.1 234.4 463 218.05 463 200.2 463 182.3 456.1 166 449.45 150.25 437.25 138.05 425.1 125.9 409.35 119.25 393 112.35 375.15 112.35 Z"/>
</g>

<g id="Symbol_23_0_Layer0_1_FILL">
<path fill="#FBB940" stroke="none" d="
M 677.2 115.85
L 651.95 115.85 663.35 84.85 643.8 84.85
Q 643.3 83.8 636.6 106.65
L 629.95 129.7 647.85 129.7 640.55 170.45 677.2 115.85 Z"/>
</g>

<g id="Symbol_24_0_Layer0_0_FILL">
<path fill="#43C2E3" stroke="none" d="
M 375.15 112.35
Q 366.05 112.35 357.75 114.1 354.5 97.95 344.55 84.8 334.55 71.65 319.9 64.2 305.2 56.75 288.7 56.45 272.2 56.15 257.25 63.1 250.6 44.8 237.5 30.6 224.8 16.95 207.8 9 190.85 1.05 172.2 0.1 152.9 -0.9 134.6 5.75 116.3 12.4 102.15 25.55 88.45 38.25 80.5 55.2 72.6 72.2 71.6 90.85 70.6 110.15 77.25 128.45 61.2 128.95 46.75 135.55 32.75 141.9 22.1 153.1 11.45 164.3 5.7 178.55 -0.2 193.35 0 209.4 0.25 225.45 6.6 240.05 12.75 254.15 23.75 265 34.75 275.85 48.9 281.8 63.6 288 79.65 288
L 375.15 288
Q 393 288 409.35 281.1 425.1 274.45 437.25 262.3 449.45 250.15 456.1 234.4 463 218.05 463 200.2 463 182.3 456.1 166 449.45 150.25 437.25 138.05 425.1 125.9 409.35 119.25 393 112.35 375.15 112.35 Z"/>
</g>

<g id="Symbol_5_0_Layer0_12_FILL">
<path fill="#43C2E3" stroke="none" d="
M 1628.45 781.6
Q 1624.35 781.4 1620.45 782.8 1616.6 784.25 1613.6 787 1610.65 789.7 1609 793.3 1607.3 796.9 1607.1 800.9 1606.9 804.95 1608.3 808.85 1604.9 808.95 1601.8 810.35 1598.85 811.7 1596.6 814.1 1594.35 816.45 1593.1 819.5 1591.85 822.65 1591.9 826.05 1591.95 829.45 1593.3 832.55 1594.6 835.55 1596.95 837.85 1599.25 840.15 1602.3 841.4 1605.4 842.7 1608.8 842.7
L 1671.5 842.7
Q 1675.3 842.7 1678.75 841.25 1682.1 839.85 1684.7 837.25 1687.3 834.7 1688.7 831.35 1690.15 827.85 1690.15 824.1 1690.15 820.3 1688.7 816.85 1687.3 813.5 1684.7 810.9 1682.1 808.3 1678.75 806.9 1675.3 805.45 1671.5 805.45 1669.6 805.45 1667.8 805.8 1667.15 802.4 1665 799.6 1662.9 796.8 1659.8 795.2 1656.65 793.65 1653.15 793.6 1649.65 793.5 1646.5 795 1645.1 791.1 1642.3 788.1 1639.6 785.2 1636 783.5 1632.4 781.8 1628.45 781.6 Z"/>
</g>

<g id="Symbol_5_0_Layer0_12_MEMBER_0_FILL">
<path fill="#43C2E3" stroke="none" d="
M 744.15 123.25
Q 744.15 121.85 743.15 120.85 742.2 119.9 740.8 119.9 739.4 119.9 738.4 120.85 737.45 121.85 737.45 123.25 737.45 124.65 738.4 125.6 739.4 126.6 740.8 126.6 742.2 126.6 743.15 125.6 744.15 124.65 744.15 123.25 Z"/>
</g>

<g id="Symbol_5_0_Layer0_12_MEMBER_1_FILL">
<path fill="#43C2E3" stroke="none" d="
M 744.15 123.25
Q 744.15 121.85 743.15 120.85 742.2 119.9 740.8 119.9 739.4 119.9 738.4 120.85 737.45 121.85 737.45 123.25 737.45 124.65 738.4 125.6 739.4 126.6 740.8 126.6 742.2 126.6 743.15 125.6 744.15 124.65 744.15 123.25 Z"/>
</g>

<g id="Symbol_5_0_Layer0_12_MEMBER_2_FILL">
<path fill="#43C2E3" stroke="none" d="
M 744.15 123.25
Q 744.15 121.85 743.15 120.85 742.2 119.9 740.8 119.9 739.4 119.9 738.4 120.85 737.45 121.85 737.45 123.25 737.45 124.65 738.4 125.6 739.4 126.6 740.8 126.6 742.2 126.6 743.15 125.6 744.15 124.65 744.15 123.25 Z"/>
</g>

<g id="Symbol_5_0_Layer0_12_MEMBER_3_FILL">
<path fill="#43C2E3" stroke="none" d="
M 744.15 123.25
Q 744.15 121.85 743.15 120.85 742.2 119.9 740.8 119.9 739.4 119.9 738.4 120.85 737.45 121.85 737.45 123.25 737.45 124.65 738.4 125.6 739.4 126.6 740.8 126.6 742.2 126.6 743.15 125.6 744.15 124.65 744.15 123.25 Z"/>
</g>

<g id="Symbol_5_0_Layer0_12_MEMBER_4_FILL">
<path fill="#43C2E3" stroke="none" d="
M 744.15 123.25
Q 744.15 121.85 743.15 120.85 742.2 119.9 740.8 119.9 739.4 119.9 738.4 120.85 737.45 121.85 737.45 123.25 737.45 124.65 738.4 125.6 739.4 126.6 740.8 126.6 742.2 126.6 743.15 125.6 744.15 124.65 744.15 123.25 Z"/>
</g>

<g id="Symbol_5_0_Layer0_12_MEMBER_5_FILL">
<path fill="#43C2E3" stroke="none" d="
M 744.15 123.25
Q 744.15 121.85 743.15 120.85 742.2 119.9 740.8 119.9 739.4 119.9 738.4 120.85 737.45 121.85 737.45 123.25 737.45 124.65 738.4 125.6 739.4 126.6 740.8 126.6 742.2 126.6 743.15 125.6 744.15 124.65 744.15 123.25 Z"/>
</g>

<g id="Symbol_5_0_Layer0_12_MEMBER_6_FILL">
<path fill="#43C2E3" stroke="none" d="
M 744.15 123.25
Q 744.15 121.85 743.15 120.85 742.2 119.9 740.8 119.9 739.4 119.9 738.4 120.85 737.45 121.85 737.45 123.25 737.45 124.65 738.4 125.6 739.4 126.6 740.8 126.6 742.2 126.6 743.15 125.6 744.15 124.65 744.15 123.25 Z"/>
</g>

<g id="Symbol_25_0_Layer0_0_FILL">
<path fill="#FFC107" stroke="none" d="
M 392.7 183.1
Q 380.6 154.35 358.45 132.2 336.3 110.05 307.55 97.95 277.85 85.35 245.3 85.35 212.75 85.35 183.05 97.95 154.3 110.05 132.15 132.2 110 154.35 97.9 183.1 85.3 212.8 85.3 245.35 85.3 277.9 97.9 307.6 110 336.35 132.15 358.5 154.3 380.65 183.05 392.75 212.75 405.35 245.3 405.35 277.85 405.35 307.55 392.75 336.3 380.65 358.45 358.5 380.6 336.35 392.7 307.6 405.3 277.9 405.3 245.35 405.3 212.8 392.7 183.1 Z"/>
</g>

<g id="Symbol_25_0_Layer0_1_MEMBER_0_FILL">
<path fill="#FFD54F" stroke="none" d="
M 252.85 3.15
Q 249.75 0 245.3 0 240.9 0 237.75 3.15 234.65 6.25 234.65 10.7
L 234.65 53.35
Q 234.65 57.8 237.75 60.9 240.9 64 245.3 64 249.75 64 252.85 60.9 256 57.75 256 53.35
L 256 10.7
Q 256 6.3 252.85 3.15 Z"/>
</g>

<g id="Symbol_25_0_Layer0_1_MEMBER_1_FILL">
<path fill="#FFD54F" stroke="none" d="
M 252.85 429.8
Q 249.75 426.65 245.3 426.65 240.9 426.65 237.75 429.8 234.65 432.9 234.65 437.35
L 234.65 480
Q 234.65 484.45 237.75 487.55 240.9 490.65 245.3 490.65 249.75 490.65 252.85 487.55 255.95 484.45 255.95 480
L 255.95 437.35
Q 256 432.95 252.85 429.8 Z"/>
</g>

<g id="Symbol_25_0_Layer0_1_MEMBER_2_FILL">
<path fill="#FFD54F" stroke="none" d="
M 429.75 237.8
Q 426.65 240.95 426.65 245.35 426.65 249.8 429.75 252.9 432.9 256 437.3 256
L 480 256
Q 484.4 256 487.5 252.9 490.65 249.75 490.65 245.35 490.65 240.95 487.5 237.8 484.4 234.7 480 234.7
L 437.3 234.7
Q 432.9 234.7 429.75 237.8 Z"/>
</g>

<g id="Symbol_25_0_Layer0_1_MEMBER_3_FILL">
<path fill="#FFD54F" stroke="none" d="
M 60.85 237.8
Q 57.75 234.65 53.3 234.65
L 10.65 234.65
Q 6.2 234.7 3.1 237.8 0 240.95 0 245.35 0 249.8 3.1 252.9 6.25 256 10.65 256
L 53.3 256
Q 57.75 256 60.85 252.9 64 249.75 64 245.35 64 240.95 60.85 237.8 Z"/>
</g>

<g id="Symbol_25_0_Layer0_1_MEMBER_4_FILL">
<path fill="#FFD54F" stroke="none" d="
M 130.7 31.85
Q 126.45 30.75 122.65 33 118.85 35.2 117.75 39.45 116.6 43.65 118.75 47.45
L 140.05 84.4
Q 141.5 86.9 144 88.3 146.5 89.75 149.35 89.75 152.2 89.75 154.65 88.3 158.5 86.1 159.6 81.85 160.75 77.55 158.55 73.75
L 137.25 36.8
Q 135 33 130.7 31.85 Z"/>
</g>

<g id="Symbol_25_0_Layer0_1_MEMBER_5_FILL">
<path fill="#FFD54F" stroke="none" d="
M 331.05 408.9
Q 329.9 413.1 332.05 416.95
L 353.4 453.9
Q 354.85 456.4 357.3 457.8 359.8 459.25 362.65 459.25 365.55 459.25 368 457.8 371.85 455.6 372.95 451.35 374.1 447.05 371.9 443.25
L 350.55 406.3
Q 348.3 402.5 344.05 401.35 339.8 400.25 335.95 402.45 332.15 404.7 331.05 408.9 Z"/>
</g>

<g id="Symbol_25_0_Layer0_1_MEMBER_6_FILL">
<path fill="#FFD54F" stroke="none" d="
M 401.3 146.6
Q 400.15 150.9 402.35 154.7 403.8 157.2 406.25 158.6 408.7 160.05 411.6 160.05
L 411.6 160
Q 414.4 160 416.9 158.6
L 453.85 137.25
Q 457.8 135.2 459.1 130.95 460.4 126.75 458.35 122.85 456.3 118.95 452.1 117.6 447.9 116.3 443.95 118.35
L 406.25 140.15
Q 402.45 142.35 401.3 146.6 Z"/>
</g>

<g id="Symbol_25_0_Layer0_1_MEMBER_7_FILL">
<path fill="#FFD54F" stroke="none" d="
M 73.7 332.15
L 73.7 332.1 36.75 353.45
Q 32.95 355.65 31.8 359.9 30.65 364.2 32.85 368 34.3 370.5 36.75 371.9 39.25 373.35 42.1 373.35 44.95 373.35 47.4 371.9
L 84.35 350.6
Q 88.3 348.55 89.6 344.3 90.95 340.1 88.9 336.2 86.85 332.25 82.6 330.95 78.4 329.65 74.5 331.7 74.1 331.85 73.7 332.15 Z"/>
</g>

<g id="Symbol_25_0_Layer0_1_MEMBER_8_FILL">
<path fill="#FFD54F" stroke="none" d="
M 36.75 137.2
L 36.75 137.25 73.7 158.6
Q 76.2 160 79 160 83.45 160 86.55 156.9 89.7 153.75 89.7 149.35 89.7 146.5 88.25 144 86.85 141.55 84.35 140.1
L 47.4 118.75
Q 43.7 116.4 39.35 117.35 35.05 118.35 32.65 122.05 30.3 125.75 31.25 130.1 32.25 134.4 35.95 136.75 36.35 137.05 36.75 137.2 Z"/>
</g>

<g id="Symbol_25_0_Layer0_1_MEMBER_9_FILL">
<path fill="#FFD54F" stroke="none" d="
M 402.2 335.4
Q 399.85 339.1 400.8 343.45 401.75 347.75 405.45 350.1
L 443.2 371.9
Q 445.7 373.4 448.55 373.3 452.95 373.3 456.05 370.2 459.2 367.05 459.2 362.65 459.2 359.8 457.75 357.3 456.35 354.85 453.85 353.4
L 453.85 353.45 416.9 332.1
Q 413.2 329.75 408.9 330.7 404.55 331.65 402.2 335.4 Z"/>
</g>

<g id="Symbol_25_0_Layer0_1_MEMBER_10_FILL">
<path fill="#FFD54F" stroke="none" d="
M 372.9 39.35
Q 371.75 35.1 367.9 32.9 364.1 30.75 359.9 31.9 355.65 33 353.45 36.8
L 332.1 73.75
Q 329.9 77.55 331.05 81.85 332.15 86.1 336 88.3 338.45 89.75 341.3 89.75 344.2 89.75 346.65 88.3 349.1 86.9 350.55 84.4
L 371.9 47.45
Q 374.1 43.65 372.9 39.35 Z"/>
</g>

<g id="Symbol_25_0_Layer0_1_MEMBER_11_FILL">
<path fill="#FFD54F" stroke="none" d="
M 159.6 408.85
Q 158.5 404.6 154.65 402.4 150.85 400.2 146.55 401.35 142.25 402.5 140.05 406.3
L 118.75 443.25
Q 116.55 447.05 117.7 451.35 118.8 455.6 122.65 457.8 125.1 459.25 128 459.25 130.85 459.25 133.35 457.8 135.85 456.4 137.25 453.9
L 158.55 416.95
Q 160.75 413.15 159.6 408.85 Z"/>
</g>

<g id="Symbol_27_0_Layer2_0_FILL">
<path fill="#A3A3A3" stroke="none" d="
M -0.2 -0.25
L -0.2 102.6 118.35 102.6 118.35 -0.25 -0.2 -0.25 Z"/>
</g>

<g id="Symbol_27_0_Layer1_0_FILL">
<path fill="#707070" stroke="none" d="
M -0.2 -0.25
L -0.2 102.6 118.35 102.6 -0.2 -0.25 Z"/>
</g>

<g id="Symbol_27_0_Layer0_0_FILL">
<path fill="#D7D7D7" stroke="none" d="
M 2.2 1.9
L 2.2 100.45 115.8 100.45 115.8 1.9 2.2 1.9 Z"/>
</g>

<g id="Symbol_14_0_Layer0_0_FILL">
<path fill="#4F3A16" stroke="none" d="
M 889.15 109.55
Q 880.5 100.9 868.2 100.9 855.9 100.9 847.2 109.55 838.55 118.25 838.55 130.55 838.55 142.85 847.2 151.5 855.9 160.2 868.2 160.2 880.5 160.2 889.15 151.5 897.85 142.85 897.85 130.55 897.85 118.25 889.15 109.55 Z"/>
</g>

<g id="Symbol_14_0_Layer0_1_FILL">
<path fill="#4F3A16" stroke="none" d="
M 889.15 109.55
Q 880.5 100.9 868.2 100.9 855.9 100.9 847.2 109.55 838.55 118.25 838.55 130.55 838.55 142.85 847.2 151.5 855.9 160.2 868.2 160.2 880.5 160.2 889.15 151.5 897.85 142.85 897.85 130.55 897.85 118.25 889.15 109.55 Z"/>
</g>

<g id="Symbol_14_0_Layer0_2_FILL">
<path fill="#000000" fill-opacity="0.3686274509803922" stroke="none" d="
M 822.8 -55.45
Q 826.85 -51.4 832.55 -51.4
L 925.6 -51.4
Q 931.3 -51.4 935.35 -55.45 939.4 -59.5 939.4 -65.2
L 939.4 -65.25
Q 939.4 -70.95 935.35 -75 931.3 -79.05 925.6 -79.05
L 832.55 -79.05
Q 826.85 -79.05 822.8 -75 818.75 -70.95 818.75 -65.25
L 818.75 -65.2
Q 818.75 -59.5 822.8 -55.45 Z"/>
</g>

<g id="Symbol_14_0_Layer0_3_FILL">
<path fill="#FBB940" stroke="none" d="
M 822.8 -55.45
Q 826.85 -51.4 832.55 -51.4
L 925.6 -51.4
Q 931.3 -51.4 935.35 -55.45 939.4 -59.5 939.4 -65.2
L 939.4 -65.25
Q 939.4 -70.95 935.35 -75 931.3 -79.05 925.6 -79.05
L 832.55 -79.05
Q 826.85 -79.05 822.8 -75 818.75 -70.95 818.75 -65.25
L 818.75 -65.2
Q 818.75 -59.5 822.8 -55.45 Z"/>
</g>
</defs>

<g transform="matrix( 1, 0, 0, 1, 0,0) ">
<g transform="matrix( 1, 0, 0, 0.9789276123046875, 35.55,1201.25) ">
<use xlink:href="#Symbol_5_0_Layer0_0_FILL"/>
</g>

<g transform="matrix( 0, 1, -1.017486572265625, 0, 1191.9,-108.95) ">
<use xlink:href="#Symbol_5_0_Layer0_1_FILL"/>
</g>

<g transform="matrix( 0, -1, 1, 0, 674.3,1037.55) ">
<use xlink:href="#Symbol_5_0_Layer0_2_FILL"/>
</g>

<g transform="matrix( -1, 0, 0, 1, 1046.75,31.95) ">
<g transform="matrix( 1, 0, 0, 1, 0,0) ">
<use xlink:href="#Symbol_17_0_Layer0_0_FILL"/>
</g>
</g>

<g transform="matrix( 1, 0, 0, 1, 78.55,149.25) ">
<g transform="matrix( 1, 0, 0, 1, 0,0) ">
<use xlink:href="#Symbol_16_0_Layer0_0_FILL"/>
</g>

<g transform="matrix( 1.01397705078125, 0, 0, 1.01397705078125, -1535.45,-375.85) ">
<use xlink:href="#Symbol_16_0_Layer0_1_FILL"/>
</g>

<g transform="matrix( 1.01397705078125, 0, 0, 1.01397705078125, -1535.45,-376.35) ">
<use xlink:href="#Symbol_16_0_Layer0_2_FILL"/>
</g>

<g transform="matrix( 1.01397705078125, 0, 0, 1.01397705078125, -1535.45,-375.5) ">
<use xlink:href="#Symbol_16_0_Layer0_3_FILL"/>
</g>

<g transform="matrix( 1.01397705078125, 0, 0, 1.01397705078125, -1535.45,-374.75) ">
<use xlink:href="#Symbol_16_0_Layer0_4_FILL"/>
</g>

<g transform="matrix( 1.01397705078125, 0, 0, 1.01397705078125, -1535.45,-375.25) ">
<use xlink:href="#Symbol_16_0_Layer0_5_FILL"/>
</g>

<g transform="matrix( 1.01397705078125, 0, 0, 1.01397705078125, -1535.45,-375.25) ">
<use xlink:href="#Symbol_16_0_Layer0_6_FILL"/>
</g>

<g transform="matrix( 1.01397705078125, 0, 0, 1.01397705078125, -1535.45,-384.25) ">
<use xlink:href="#Symbol_16_0_Layer0_7_FILL"/>
</g>
</g>

<g transform="matrix( 1, 0, 0, 1, 217.85,37.4) ">
<g transform="matrix( 1, 0, 0, 1, 0,0) ">
<use xlink:href="#Symbol_19_0_Layer0_0_FILL"/>
</g>
</g>

<g transform="matrix( 1, 0, 0, 1, 815.15,30.55) ">
<g transform="matrix( 1, 0, 0, 1, 0,0) ">
<use xlink:href="#Symbol_17_0_Layer0_0_FILL"/>
</g>
</g>

<g transform="matrix( 1, 0, 0, 1, 471.75,44.1) ">
<g transform="matrix( 0.2122039794921875, 0, 0, 0.2122039794921875, 0,0.05) ">
<use xlink:href="#Symbol_21_0_Layer0_0_FILL"/>
</g>

<g transform="matrix( 0.5601043701171875, -0.252471923828125, 0.252471923828125, 0.5601043701171875, -267.9,264.55) ">
<use xlink:href="#Symbol_21_0_Layer0_1_FILL"/>
</g>

<g transform="matrix( 0.5601043701171875, -0.252471923828125, 0.252471923828125, 0.5601043701171875, -250.1,264.55) ">
<use xlink:href="#Symbol_21_0_Layer0_2_FILL"/>
</g>

<g transform="matrix( 0.5601043701171875, -0.252471923828125, 0.252471923828125, 0.5601043701171875, -232.3,264.55) ">
<use xlink:href="#Symbol_21_0_Layer0_3_FILL"/>
</g>

<g transform="matrix( 0.5601043701171875, -0.252471923828125, 0.252471923828125, 0.5601043701171875, -253.1,280.95) ">
<use xlink:href="#Symbol_21_0_Layer0_4_FILL"/>
</g>

<g transform="matrix( 0.5601043701171875, -0.252471923828125, 0.252471923828125, 0.5601043701171875, -235.25,280.95) ">
<use xlink:href="#Symbol_21_0_Layer0_5_FILL"/>
</g>

<g transform="matrix( 0.5601043701171875, -0.252471923828125, 0.252471923828125, 0.5601043701171875, -232.1,264.55) ">
<use xlink:href="#Symbol_21_0_Layer0_6_FILL"/>
</g>

<g transform="matrix( 0.5601043701171875, -0.252471923828125, 0.252471923828125, 0.5601043701171875, -214.3,264.55) ">
<use xlink:href="#Symbol_21_0_Layer0_7_FILL"/>
</g>

<g transform="matrix( 0.5601043701171875, -0.252471923828125, 0.252471923828125, 0.5601043701171875, -196.5,264.55) ">
<use xlink:href="#Symbol_21_0_Layer0_8_FILL"/>
</g>

<g transform="matrix( 0.5601043701171875, -0.252471923828125, 0.252471923828125, 0.5601043701171875, -217.3,280.95) ">
<use xlink:href="#Symbol_21_0_Layer0_9_FILL"/>
</g>

<g transform="matrix( 0.5601043701171875, -0.252471923828125, 0.252471923828125, 0.5601043701171875, -199.45,280.95) ">
<use xlink:href="#Symbol_21_0_Layer0_10_FILL"/>
</g>
</g>

<g transform="matrix( 1, 0, 0, 1, 0,0) ">
<use xlink:href="#Symbol_5_0_Layer0_8_FILL"/>
</g>

<g transform="matrix( 1, 0, 0, 1, -6.3,-6.85) ">
<use xlink:href="#Symbol_5_0_Layer0_8_MEMBER_0_FILL"/>
</g>

<g transform="matrix( 1, 0, 0, 1, 13.15,-6.85) ">
<use xlink:href="#Symbol_5_0_Layer0_8_MEMBER_1_FILL"/>
</g>

<g transform="matrix( 1, 0, 0, 1, 32.6,-6.85) ">
<use xlink:href="#Symbol_5_0_Layer0_8_MEMBER_2_FILL"/>
</g>

<g transform="matrix( 1, 0, 0, 1, 52.15,-6.85) ">
<use xlink:href="#Symbol_5_0_Layer0_8_MEMBER_3_FILL"/>
</g>

<g transform="matrix( 1, 0, 0, 1, 4.1,2.75) ">
<use xlink:href="#Symbol_5_0_Layer0_8_MEMBER_4_FILL"/>
</g>

<g transform="matrix( 1, 0, 0, 1, 23.55,2.75) ">
<use xlink:href="#Symbol_5_0_Layer0_8_MEMBER_5_FILL"/>
</g>

<g transform="matrix( 1, 0, 0, 1, 43,2.75) ">
<use xlink:href="#Symbol_5_0_Layer0_8_MEMBER_6_FILL"/>
</g>

<g transform="matrix( 1, 0, 0, 1, 595.75,47.9) ">
<g transform="matrix( 1, 0, 0, 1, 0,0) ">
<g transform="matrix( 0.2122039794921875, 0, 0, 0.2122039794921875, 0,0.05) ">
<use xlink:href="#Symbol_22_0_Layer0_0_FILL"/>
</g>
</g>

<g transform="matrix( 0.7230377197265625, 0, 0, 0.7230377197265625, -423.45,-39.75) ">
<use xlink:href="#Symbol_23_0_Layer0_1_FILL"/>
</g>
</g>

<g transform="matrix( 1, 0, 0, 1, 349.7,56.05) ">
<g transform="matrix( 0.2122039794921875, 0, 0, 0.2122039794921875, 0,0.05) ">
<use xlink:href="#Symbol_24_0_Layer0_0_FILL"/>
</g>
</g>

<g transform="matrix( 1, 0, 0, 1, 1347.85,777.95) ">
<g transform="matrix( 0.2122039794921875, 0, 0, 0.2122039794921875, 0,0.05) ">
<use xlink:href="#Symbol_21_0_Layer0_0_FILL"/>
</g>

<g transform="matrix( 0.5601043701171875, -0.252471923828125, 0.252471923828125, 0.5601043701171875, -267.9,264.55) ">
<use xlink:href="#Symbol_21_0_Layer0_1_FILL"/>
</g>

<g transform="matrix( 0.5601043701171875, -0.252471923828125, 0.252471923828125, 0.5601043701171875, -250.1,264.55) ">
<use xlink:href="#Symbol_21_0_Layer0_2_FILL"/>
</g>

<g transform="matrix( 0.5601043701171875, -0.252471923828125, 0.252471923828125, 0.5601043701171875, -232.3,264.55) ">
<use xlink:href="#Symbol_21_0_Layer0_3_FILL"/>
</g>

<g transform="matrix( 0.5601043701171875, -0.252471923828125, 0.252471923828125, 0.5601043701171875, -253.1,280.95) ">
<use xlink:href="#Symbol_21_0_Layer0_4_FILL"/>
</g>

<g transform="matrix( 0.5601043701171875, -0.252471923828125, 0.252471923828125, 0.5601043701171875, -235.25,280.95) ">
<use xlink:href="#Symbol_21_0_Layer0_5_FILL"/>
</g>

<g transform="matrix( 0.5601043701171875, -0.252471923828125, 0.252471923828125, 0.5601043701171875, -232.1,264.55) ">
<use xlink:href="#Symbol_21_0_Layer0_6_FILL"/>
</g>

<g transform="matrix( 0.5601043701171875, -0.252471923828125, 0.252471923828125, 0.5601043701171875, -214.3,264.55) ">
<use xlink:href="#Symbol_21_0_Layer0_7_FILL"/>
</g>

<g transform="matrix( 0.5601043701171875, -0.252471923828125, 0.252471923828125, 0.5601043701171875, -196.5,264.55) ">
<use xlink:href="#Symbol_21_0_Layer0_8_FILL"/>
</g>

<g transform="matrix( 0.5601043701171875, -0.252471923828125, 0.252471923828125, 0.5601043701171875, -217.3,280.95) ">
<use xlink:href="#Symbol_21_0_Layer0_9_FILL"/>
</g>

<g transform="matrix( 0.5601043701171875, -0.252471923828125, 0.252471923828125, 0.5601043701171875, -199.45,280.95) ">
<use xlink:href="#Symbol_21_0_Layer0_10_FILL"/>
</g>
</g>

<g transform="matrix( 1, 0, 0, 1, 0,0) ">
<use xlink:href="#Symbol_5_0_Layer0_12_FILL"/>
</g>

<g transform="matrix( 1, 0, 0, 1, 869.8,727) ">
<use xlink:href="#Symbol_5_0_Layer0_12_MEMBER_0_FILL"/>
</g>

<g transform="matrix( 1, 0, 0, 1, 889.25,727) ">
<use xlink:href="#Symbol_5_0_Layer0_12_MEMBER_1_FILL"/>
</g>

<g transform="matrix( 1, 0, 0, 1, 908.7,727) ">
<use xlink:href="#Symbol_5_0_Layer0_12_MEMBER_2_FILL"/>
</g>

<g transform="matrix( 1, 0, 0, 1, 928.25,727) ">
<use xlink:href="#Symbol_5_0_Layer0_12_MEMBER_3_FILL"/>
</g>

<g transform="matrix( 1, 0, 0, 1, 880.2,736.6) ">
<use xlink:href="#Symbol_5_0_Layer0_12_MEMBER_4_FILL"/>
</g>

<g transform="matrix( 1, 0, 0, 1, 899.65,736.6) ">
<use xlink:href="#Symbol_5_0_Layer0_12_MEMBER_5_FILL"/>
</g>

<g transform="matrix( 1, 0, 0, 1, 919.1,736.6) ">
<use xlink:href="#Symbol_5_0_Layer0_12_MEMBER_6_FILL"/>
</g>

<g transform="matrix( 1, 0, 0, 1, 1471.85,781.75) ">
<g transform="matrix( 1, 0, 0, 1, 0,0) ">
<g transform="matrix( 0.2122039794921875, 0, 0, 0.2122039794921875, 0,0.05) ">
<use xlink:href="#Symbol_22_0_Layer0_0_FILL"/>
</g>
</g>

<g transform="matrix( 0.7230377197265625, 0, 0, 0.7230377197265625, -423.45,-39.75) ">
<use xlink:href="#Symbol_23_0_Layer0_1_FILL"/>
</g>
</g>

<g transform="matrix( 1, 0, 0, 1, 1225.8,789.9) ">
<g transform="matrix( 0.2122039794921875, 0, 0, 0.2122039794921875, 0,0.05) ">
<use xlink:href="#Symbol_24_0_Layer0_0_FILL"/>
</g>
</g>

<g transform="matrix( 1, 0, 0, 1, 233.15,45.1) ">
<g transform="matrix( 0.1808013916015625, 0, 0, 0.1808013916015625, 0,0) ">
<use xlink:href="#Symbol_25_0_Layer0_0_FILL"/>
</g>

<g transform="matrix( 0.1808013916015625, 0, 0, 0.1808013916015625, 0,0) ">
<use xlink:href="#Symbol_25_0_Layer0_1_MEMBER_0_FILL"/>
</g>

<g transform="matrix( 0.1808013916015625, 0, 0, 0.1808013916015625, 0,0) ">
<use xlink:href="#Symbol_25_0_Layer0_1_MEMBER_1_FILL"/>
</g>

<g transform="matrix( 0.1808013916015625, 0, 0, 0.1808013916015625, 0,0) ">
<use xlink:href="#Symbol_25_0_Layer0_1_MEMBER_2_FILL"/>
</g>

<g transform="matrix( 0.1808013916015625, 0, 0, 0.1808013916015625, 0,0) ">
<use xlink:href="#Symbol_25_0_Layer0_1_MEMBER_3_FILL"/>
</g>

<g transform="matrix( 0.1808013916015625, 0, 0, 0.1808013916015625, 0,0) ">
<use xlink:href="#Symbol_25_0_Layer0_1_MEMBER_4_FILL"/>
</g>

<g transform="matrix( 0.1808013916015625, 0, 0, 0.1808013916015625, 0,0) ">
<use xlink:href="#Symbol_25_0_Layer0_1_MEMBER_5_FILL"/>
</g>

<g transform="matrix( 0.1808013916015625, 0, 0, 0.1808013916015625, 0,0) ">
<use xlink:href="#Symbol_25_0_Layer0_1_MEMBER_6_FILL"/>
</g>

<g transform="matrix( 0.1808013916015625, 0, 0, 0.1808013916015625, 0,0) ">
<use xlink:href="#Symbol_25_0_Layer0_1_MEMBER_7_FILL"/>
</g>

<g transform="matrix( 0.1808013916015625, 0, 0, 0.1808013916015625, 0,0) ">
<use xlink:href="#Symbol_25_0_Layer0_1_MEMBER_8_FILL"/>
</g>

<g transform="matrix( 0.1808013916015625, 0, 0, 0.1808013916015625, 0,0) ">
<use xlink:href="#Symbol_25_0_Layer0_1_MEMBER_9_FILL"/>
</g>

<g transform="matrix( 0.1808013916015625, 0, 0, 0.1808013916015625, 0,0) ">
<use xlink:href="#Symbol_25_0_Layer0_1_MEMBER_10_FILL"/>
</g>

<g transform="matrix( 0.1808013916015625, 0, 0, 0.1808013916015625, 0,0) ">
<use xlink:href="#Symbol_25_0_Layer0_1_MEMBER_11_FILL"/>
</g>
</g>

<g transform="matrix( 1, 0, 0, 1, 1109.25,778.95) ">
<g transform="matrix( 0.1808013916015625, 0, 0, 0.1808013916015625, 0,0) ">
<use xlink:href="#Symbol_25_0_Layer0_0_FILL"/>
</g>

<g transform="matrix( 0.1808013916015625, 0, 0, 0.1808013916015625, 0,0) ">
<use xlink:href="#Symbol_25_0_Layer0_1_MEMBER_0_FILL"/>
</g>

<g transform="matrix( 0.1808013916015625, 0, 0, 0.1808013916015625, 0,0) ">
<use xlink:href="#Symbol_25_0_Layer0_1_MEMBER_1_FILL"/>
</g>

<g transform="matrix( 0.1808013916015625, 0, 0, 0.1808013916015625, 0,0) ">
<use xlink:href="#Symbol_25_0_Layer0_1_MEMBER_2_FILL"/>
</g>

<g transform="matrix( 0.1808013916015625, 0, 0, 0.1808013916015625, 0,0) ">
<use xlink:href="#Symbol_25_0_Layer0_1_MEMBER_3_FILL"/>
</g>

<g transform="matrix( 0.1808013916015625, 0, 0, 0.1808013916015625, 0,0) ">
<use xlink:href="#Symbol_25_0_Layer0_1_MEMBER_4_FILL"/>
</g>

<g transform="matrix( 0.1808013916015625, 0, 0, 0.1808013916015625, 0,0) ">
<use xlink:href="#Symbol_25_0_Layer0_1_MEMBER_5_FILL"/>
</g>

<g transform="matrix( 0.1808013916015625, 0, 0, 0.1808013916015625, 0,0) ">
<use xlink:href="#Symbol_25_0_Layer0_1_MEMBER_6_FILL"/>
</g>

<g transform="matrix( 0.1808013916015625, 0, 0, 0.1808013916015625, 0,0) ">
<use xlink:href="#Symbol_25_0_Layer0_1_MEMBER_7_FILL"/>
</g>

<g transform="matrix( 0.1808013916015625, 0, 0, 0.1808013916015625, 0,0) ">
<use xlink:href="#Symbol_25_0_Layer0_1_MEMBER_8_FILL"/>
</g>

<g transform="matrix( 0.1808013916015625, 0, 0, 0.1808013916015625, 0,0) ">
<use xlink:href="#Symbol_25_0_Layer0_1_MEMBER_9_FILL"/>
</g>

<g transform="matrix( 0.1808013916015625, 0, 0, 0.1808013916015625, 0,0) ">
<use xlink:href="#Symbol_25_0_Layer0_1_MEMBER_10_FILL"/>
</g>

<g transform="matrix( 0.1808013916015625, 0, 0, 0.1808013916015625, 0,0) ">
<use xlink:href="#Symbol_25_0_Layer0_1_MEMBER_11_FILL"/>
</g>
</g>

<g transform="matrix( 1, 0, 0, 1, 217.8,148.8) ">
<g transform="matrix( 1, 0, 0, 0.9999847412109375, 0.2,0.25) ">
<g transform="matrix( 1, 0, 0, 1, 0,0) ">
<use xlink:href="#Symbol_27_0_Layer2_0_FILL"/>
</g>

<g transform="matrix( 1, 0, 0, 1, 0,0) ">
<use xlink:href="#Symbol_27_0_Layer1_0_FILL"/>
</g>

<g transform="matrix( 1, 0, 0, 1, 0,0) ">
<use xlink:href="#Symbol_27_0_Layer0_0_FILL"/>
</g>
</g>

<g transform="matrix( 1, 0, 0, 0.9999847412109375, 121.35,0.25) ">
<g transform="matrix( 1, 0, 0, 1, 0,0) ">
<use xlink:href="#Symbol_27_0_Layer2_0_FILL"/>
</g>

<g transform="matrix( 1, 0, 0, 1, 0,0) ">
<use xlink:href="#Symbol_27_0_Layer1_0_FILL"/>
</g>

<g transform="matrix( 1, 0, 0, 1, 0,0) ">
<use xlink:href="#Symbol_27_0_Layer0_0_FILL"/>
</g>
</g>

<g transform="matrix( 1, 0, 0, 0.9999847412109375, 242.5,0.25) ">
<g transform="matrix( 1, 0, 0, 1, 0,0) ">
<use xlink:href="#Symbol_27_0_Layer2_0_FILL"/>
</g>

<g transform="matrix( 1, 0, 0, 1, 0,0) ">
<use xlink:href="#Symbol_27_0_Layer1_0_FILL"/>
</g>

<g transform="matrix( 1, 0, 0, 1, 0,0) ">
<use xlink:href="#Symbol_27_0_Layer0_0_FILL"/>
</g>
</g>

<g transform="matrix( 1, 0, 0, 0.9999847412109375, 363.65,0.25) ">
<g transform="matrix( 1, 0, 0, 1, 0,0) ">
<use xlink:href="#Symbol_27_0_Layer2_0_FILL"/>
</g>

<g transform="matrix( 1, 0, 0, 1, 0,0) ">
<use xlink:href="#Symbol_27_0_Layer1_0_FILL"/>
</g>

<g transform="matrix( 1, 0, 0, 1, 0,0) ">
<use xlink:href="#Symbol_27_0_Layer0_0_FILL"/>
</g>
</g>

<g transform="matrix( 1, 0, 0, 0.9999847412109375, 484.85,0.25) ">
<g transform="matrix( 1, 0, 0, 1, 0,0) ">
<use xlink:href="#Symbol_27_0_Layer2_0_FILL"/>
</g>

<g transform="matrix( 1, 0, 0, 1, 0,0) ">
<use xlink:href="#Symbol_27_0_Layer1_0_FILL"/>
</g>

<g transform="matrix( 1, 0, 0, 1, 0,0) ">
<use xlink:href="#Symbol_27_0_Layer0_0_FILL"/>
</g>
</g>
</g>

<g transform="matrix( 1, 0, 0, 1, 217.8,254.55) ">
<g transform="matrix( 1, 0, 0, 0.9999847412109375, 0.2,0.25) ">
<g transform="matrix( 1, 0, 0, 1, 0,0) ">
<use xlink:href="#Symbol_27_0_Layer2_0_FILL"/>
</g>

<g transform="matrix( 1, 0, 0, 1, 0,0) ">
<use xlink:href="#Symbol_27_0_Layer1_0_FILL"/>
</g>

<g transform="matrix( 1, 0, 0, 1, 0,0) ">
<use xlink:href="#Symbol_27_0_Layer0_0_FILL"/>
</g>
</g>

<g transform="matrix( 1, 0, 0, 0.9999847412109375, 121.35,0.25) ">
<g transform="matrix( 1, 0, 0, 1, 0,0) ">
<use xlink:href="#Symbol_27_0_Layer2_0_FILL"/>
</g>

<g transform="matrix( 1, 0, 0, 1, 0,0) ">
<use xlink:href="#Symbol_27_0_Layer1_0_FILL"/>
</g>

<g transform="matrix( 1, 0, 0, 1, 0,0) ">
<use xlink:href="#Symbol_27_0_Layer0_0_FILL"/>
</g>
</g>

<g transform="matrix( 1, 0, 0, 0.9999847412109375, 242.5,0.25) ">
<g transform="matrix( 1, 0, 0, 1, 0,0) ">
<use xlink:href="#Symbol_27_0_Layer2_0_FILL"/>
</g>

<g transform="matrix( 1, 0, 0, 1, 0,0) ">
<use xlink:href="#Symbol_27_0_Layer1_0_FILL"/>
</g>

<g transform="matrix( 1, 0, 0, 1, 0,0) ">
<use xlink:href="#Symbol_27_0_Layer0_0_FILL"/>
</g>
</g>

<g transform="matrix( 1, 0, 0, 0.9999847412109375, 363.65,0.25) ">
<g transform="matrix( 1, 0, 0, 1, 0,0) ">
<use xlink:href="#Symbol_27_0_Layer2_0_FILL"/>
</g>

<g transform="matrix( 1, 0, 0, 1, 0,0) ">
<use xlink:href="#Symbol_27_0_Layer1_0_FILL"/>
</g>

<g transform="matrix( 1, 0, 0, 1, 0,0) ">
<use xlink:href="#Symbol_27_0_Layer0_0_FILL"/>
</g>
</g>

<g transform="matrix( 1, 0, 0, 0.9999847412109375, 484.85,0.25) ">
<g transform="matrix( 1, 0, 0, 1, 0,0) ">
<use xlink:href="#Symbol_27_0_Layer2_0_FILL"/>
</g>

<g transform="matrix( 1, 0, 0, 1, 0,0) ">
<use xlink:href="#Symbol_27_0_Layer1_0_FILL"/>
</g>

<g transform="matrix( 1, 0, 0, 1, 0,0) ">
<use xlink:href="#Symbol_27_0_Layer0_0_FILL"/>
</g>
</g>
</g>

<g transform="matrix( 1, 0, 0, 1, 217.8,360.3) ">
<g transform="matrix( 1, 0, 0, 0.9999847412109375, 0.2,0.25) ">
<g transform="matrix( 1, 0, 0, 1, 0,0) ">
<use xlink:href="#Symbol_27_0_Layer2_0_FILL"/>
</g>

<g transform="matrix( 1, 0, 0, 1, 0,0) ">
<use xlink:href="#Symbol_27_0_Layer1_0_FILL"/>
</g>

<g transform="matrix( 1, 0, 0, 1, 0,0) ">
<use xlink:href="#Symbol_27_0_Layer0_0_FILL"/>
</g>
</g>

<g transform="matrix( 1, 0, 0, 0.9999847412109375, 121.35,0.25) ">
<g transform="matrix( 1, 0, 0, 1, 0,0) ">
<use xlink:href="#Symbol_27_0_Layer2_0_FILL"/>
</g>

<g transform="matrix( 1, 0, 0, 1, 0,0) ">
<use xlink:href="#Symbol_27_0_Layer1_0_FILL"/>
</g>

<g transform="matrix( 1, 0, 0, 1, 0,0) ">
<use xlink:href="#Symbol_27_0_Layer0_0_FILL"/>
</g>
</g>

<g transform="matrix( 1, 0, 0, 0.9999847412109375, 242.5,0.25) ">
<g transform="matrix( 1, 0, 0, 1, 0,0) ">
<use xlink:href="#Symbol_27_0_Layer2_0_FILL"/>
</g>

<g transform="matrix( 1, 0, 0, 1, 0,0) ">
<use xlink:href="#Symbol_27_0_Layer1_0_FILL"/>
</g>

<g transform="matrix( 1, 0, 0, 1, 0,0) ">
<use xlink:href="#Symbol_27_0_Layer0_0_FILL"/>
</g>
</g>

<g transform="matrix( 1, 0, 0, 0.9999847412109375, 363.65,0.25) ">
<g transform="matrix( 1, 0, 0, 1, 0,0) ">
<use xlink:href="#Symbol_27_0_Layer2_0_FILL"/>
</g>

<g transform="matrix( 1, 0, 0, 1, 0,0) ">
<use xlink:href="#Symbol_27_0_Layer1_0_FILL"/>
</g>

<g transform="matrix( 1, 0, 0, 1, 0,0) ">
<use xlink:href="#Symbol_27_0_Layer0_0_FILL"/>
</g>
</g>

<g transform="matrix( 1, 0, 0, 0.9999847412109375, 484.85,0.25) ">
<g transform="matrix( 1, 0, 0, 1, 0,0) ">
<use xlink:href="#Symbol_27_0_Layer2_0_FILL"/>
</g>

<g transform="matrix( 1, 0, 0, 1, 0,0) ">
<use xlink:href="#Symbol_27_0_Layer1_0_FILL"/>
</g>

<g transform="matrix( 1, 0, 0, 1, 0,0) ">
<use xlink:href="#Symbol_27_0_Layer0_0_FILL"/>
</g>
</g>
</g>

<g transform="matrix( 1, 0, 0, 1, 217.8,466.05) ">
<g transform="matrix( 1, 0, 0, 0.9999847412109375, 0.2,0.25) ">
<g transform="matrix( 1, 0, 0, 1, 0,0) ">
<use xlink:href="#Symbol_27_0_Layer2_0_FILL"/>
</g>

<g transform="matrix( 1, 0, 0, 1, 0,0) ">
<use xlink:href="#Symbol_27_0_Layer1_0_FILL"/>
</g>

<g transform="matrix( 1, 0, 0, 1, 0,0) ">
<use xlink:href="#Symbol_27_0_Layer0_0_FILL"/>
</g>
</g>

<g transform="matrix( 1, 0, 0, 0.9999847412109375, 121.35,0.25) ">
<g transform="matrix( 1, 0, 0, 1, 0,0) ">
<use xlink:href="#Symbol_27_0_Layer2_0_FILL"/>
</g>

<g transform="matrix( 1, 0, 0, 1, 0,0) ">
<use xlink:href="#Symbol_27_0_Layer1_0_FILL"/>
</g>

<g transform="matrix( 1, 0, 0, 1, 0,0) ">
<use xlink:href="#Symbol_27_0_Layer0_0_FILL"/>
</g>
</g>

<g transform="matrix( 1, 0, 0, 0.9999847412109375, 242.5,0.25) ">
<g transform="matrix( 1, 0, 0, 1, 0,0) ">
<use xlink:href="#Symbol_27_0_Layer2_0_FILL"/>
</g>

<g transform="matrix( 1, 0, 0, 1, 0,0) ">
<use xlink:href="#Symbol_27_0_Layer1_0_FILL"/>
</g>

<g transform="matrix( 1, 0, 0, 1, 0,0) ">
<use xlink:href="#Symbol_27_0_Layer0_0_FILL"/>
</g>
</g>

<g transform="matrix( 1, 0, 0, 0.9999847412109375, 363.65,0.25) ">
<g transform="matrix( 1, 0, 0, 1, 0,0) ">
<use xlink:href="#Symbol_27_0_Layer2_0_FILL"/>
</g>

<g transform="matrix( 1, 0, 0, 1, 0,0) ">
<use xlink:href="#Symbol_27_0_Layer1_0_FILL"/>
</g>

<g transform="matrix( 1, 0, 0, 1, 0,0) ">
<use xlink:href="#Symbol_27_0_Layer0_0_FILL"/>
</g>
</g>

<g transform="matrix( 1, 0, 0, 0.9999847412109375, 484.85,0.25) ">
<g transform="matrix( 1, 0, 0, 1, 0,0) ">
<use xlink:href="#Symbol_27_0_Layer2_0_FILL"/>
</g>

<g transform="matrix( 1, 0, 0, 1, 0,0) ">
<use xlink:href="#Symbol_27_0_Layer1_0_FILL"/>
</g>

<g transform="matrix( 1, 0, 0, 1, 0,0) ">
<use xlink:href="#Symbol_27_0_Layer0_0_FILL"/>
</g>
</g>
</g>

<g transform="matrix( 1, 0, 0, 1, 217.8,571.8) ">
<g transform="matrix( 1, 0, 0, 0.9999847412109375, 0.2,0.25) ">
<g transform="matrix( 1, 0, 0, 1, 0,0) ">
<use xlink:href="#Symbol_27_0_Layer2_0_FILL"/>
</g>

<g transform="matrix( 1, 0, 0, 1, 0,0) ">
<use xlink:href="#Symbol_27_0_Layer1_0_FILL"/>
</g>

<g transform="matrix( 1, 0, 0, 1, 0,0) ">
<use xlink:href="#Symbol_27_0_Layer0_0_FILL"/>
</g>
</g>

<g transform="matrix( 1, 0, 0, 0.9999847412109375, 121.35,0.25) ">
<g transform="matrix( 1, 0, 0, 1, 0,0) ">
<use xlink:href="#Symbol_27_0_Layer2_0_FILL"/>
</g>

<g transform="matrix( 1, 0, 0, 1, 0,0) ">
<use xlink:href="#Symbol_27_0_Layer1_0_FILL"/>
</g>

<g transform="matrix( 1, 0, 0, 1, 0,0) ">
<use xlink:href="#Symbol_27_0_Layer0_0_FILL"/>
</g>
</g>

<g transform="matrix( 1, 0, 0, 0.9999847412109375, 242.5,0.25) ">
<g transform="matrix( 1, 0, 0, 1, 0,0) ">
<use xlink:href="#Symbol_27_0_Layer2_0_FILL"/>
</g>

<g transform="matrix( 1, 0, 0, 1, 0,0) ">
<use xlink:href="#Symbol_27_0_Layer1_0_FILL"/>
</g>

<g transform="matrix( 1, 0, 0, 1, 0,0) ">
<use xlink:href="#Symbol_27_0_Layer0_0_FILL"/>
</g>
</g>

<g transform="matrix( 1, 0, 0, 0.9999847412109375, 363.65,0.25) ">
<g transform="matrix( 1, 0, 0, 1, 0,0) ">
<use xlink:href="#Symbol_27_0_Layer2_0_FILL"/>
</g>

<g transform="matrix( 1, 0, 0, 1, 0,0) ">
<use xlink:href="#Symbol_27_0_Layer1_0_FILL"/>
</g>

<g transform="matrix( 1, 0, 0, 1, 0,0) ">
<use xlink:href="#Symbol_27_0_Layer0_0_FILL"/>
</g>
</g>

<g transform="matrix( 1, 0, 0, 0.9999847412109375, 484.85,0.25) ">
<g transform="matrix( 1, 0, 0, 1, 0,0) ">
<use xlink:href="#Symbol_27_0_Layer2_0_FILL"/>
</g>

<g transform="matrix( 1, 0, 0, 1, 0,0) ">
<use xlink:href="#Symbol_27_0_Layer1_0_FILL"/>
</g>

<g transform="matrix( 1, 0, 0, 1, 0,0) ">
<use xlink:href="#Symbol_27_0_Layer0_0_FILL"/>
</g>
</g>
</g>

<g transform="matrix( 1, 0, 0, 1, 217.8,677.55) ">
<g transform="matrix( 1, 0, 0, 0.9999847412109375, 0.2,0.25) ">
<g transform="matrix( 1, 0, 0, 1, 0,0) ">
<use xlink:href="#Symbol_27_0_Layer2_0_FILL"/>
</g>

<g transform="matrix( 1, 0, 0, 1, 0,0) ">
<use xlink:href="#Symbol_27_0_Layer1_0_FILL"/>
</g>

<g transform="matrix( 1, 0, 0, 1, 0,0) ">
<use xlink:href="#Symbol_27_0_Layer0_0_FILL"/>
</g>
</g>

<g transform="matrix( 1, 0, 0, 0.9999847412109375, 121.35,0.25) ">
<g transform="matrix( 1, 0, 0, 1, 0,0) ">
<use xlink:href="#Symbol_27_0_Layer2_0_FILL"/>
</g>

<g transform="matrix( 1, 0, 0, 1, 0,0) ">
<use xlink:href="#Symbol_27_0_Layer1_0_FILL"/>
</g>

<g transform="matrix( 1, 0, 0, 1, 0,0) ">
<use xlink:href="#Symbol_27_0_Layer0_0_FILL"/>
</g>
</g>

<g transform="matrix( 1, 0, 0, 0.9999847412109375, 242.5,0.25) ">
<g transform="matrix( 1, 0, 0, 1, 0,0) ">
<use xlink:href="#Symbol_27_0_Layer2_0_FILL"/>
</g>

<g transform="matrix( 1, 0, 0, 1, 0,0) ">
<use xlink:href="#Symbol_27_0_Layer1_0_FILL"/>
</g>

<g transform="matrix( 1, 0, 0, 1, 0,0) ">
<use xlink:href="#Symbol_27_0_Layer0_0_FILL"/>
</g>
</g>

<g transform="matrix( 1, 0, 0, 0.9999847412109375, 363.65,0.25) ">
<g transform="matrix( 1, 0, 0, 1, 0,0) ">
<use xlink:href="#Symbol_27_0_Layer2_0_FILL"/>
</g>

<g transform="matrix( 1, 0, 0, 1, 0,0) ">
<use xlink:href="#Symbol_27_0_Layer1_0_FILL"/>
</g>

<g transform="matrix( 1, 0, 0, 1, 0,0) ">
<use xlink:href="#Symbol_27_0_Layer0_0_FILL"/>
</g>
</g>

<g transform="matrix( 1, 0, 0, 0.9999847412109375, 484.85,0.25) ">
<g transform="matrix( 1, 0, 0, 1, 0,0) ">
<use xlink:href="#Symbol_27_0_Layer2_0_FILL"/>
</g>

<g transform="matrix( 1, 0, 0, 1, 0,0) ">
<use xlink:href="#Symbol_27_0_Layer1_0_FILL"/>
</g>

<g transform="matrix( 1, 0, 0, 1, 0,0) ">
<use xlink:href="#Symbol_27_0_Layer0_0_FILL"/>
</g>
</g>
</g>

<g transform="matrix( 1, 0, 0, 1, 217.8,783.3) ">
<g transform="matrix( 1, 0, 0, 0.9999847412109375, 0.2,0.25) ">
<g transform="matrix( 1, 0, 0, 1, 0,0) ">
<use xlink:href="#Symbol_27_0_Layer2_0_FILL"/>
</g>

<g transform="matrix( 1, 0, 0, 1, 0,0) ">
<use xlink:href="#Symbol_27_0_Layer1_0_FILL"/>
</g>

<g transform="matrix( 1, 0, 0, 1, 0,0) ">
<use xlink:href="#Symbol_27_0_Layer0_0_FILL"/>
</g>
</g>

<g transform="matrix( 1, 0, 0, 0.9999847412109375, 121.35,0.25) ">
<g transform="matrix( 1, 0, 0, 1, 0,0) ">
<use xlink:href="#Symbol_27_0_Layer2_0_FILL"/>
</g>

<g transform="matrix( 1, 0, 0, 1, 0,0) ">
<use xlink:href="#Symbol_27_0_Layer1_0_FILL"/>
</g>

<g transform="matrix( 1, 0, 0, 1, 0,0) ">
<use xlink:href="#Symbol_27_0_Layer0_0_FILL"/>
</g>
</g>

<g transform="matrix( 1, 0, 0, 0.9999847412109375, 242.5,0.25) ">
<g transform="matrix( 1, 0, 0, 1, 0,0) ">
<use xlink:href="#Symbol_27_0_Layer2_0_FILL"/>
</g>

<g transform="matrix( 1, 0, 0, 1, 0,0) ">
<use xlink:href="#Symbol_27_0_Layer1_0_FILL"/>
</g>

<g transform="matrix( 1, 0, 0, 1, 0,0) ">
<use xlink:href="#Symbol_27_0_Layer0_0_FILL"/>
</g>
</g>

<g transform="matrix( 1, 0, 0, 0.9999847412109375, 363.65,0.25) ">
<g transform="matrix( 1, 0, 0, 1, 0,0) ">
<use xlink:href="#Symbol_27_0_Layer2_0_FILL"/>
</g>

<g transform="matrix( 1, 0, 0, 1, 0,0) ">
<use xlink:href="#Symbol_27_0_Layer1_0_FILL"/>
</g>

<g transform="matrix( 1, 0, 0, 1, 0,0) ">
<use xlink:href="#Symbol_27_0_Layer0_0_FILL"/>
</g>
</g>

<g transform="matrix( 1, 0, 0, 0.9999847412109375, 484.85,0.25) ">
<g transform="matrix( 1, 0, 0, 1, 0,0) ">
<use xlink:href="#Symbol_27_0_Layer2_0_FILL"/>
</g>

<g transform="matrix( 1, 0, 0, 1, 0,0) ">
<use xlink:href="#Symbol_27_0_Layer1_0_FILL"/>
</g>

<g transform="matrix( 1, 0, 0, 1, 0,0) ">
<use xlink:href="#Symbol_27_0_Layer0_0_FILL"/>
</g>
</g>
</g>

<g transform="matrix( 1, 0, 0, 1, 855.95,109.9) ">
<g transform="matrix( 0.6581573486328125, 0, 0, 0.6581573486328125, -551.9,-66.4) ">
<use xlink:href="#Symbol_14_0_Layer0_0_FILL"/>
</g>

<g transform="matrix( 0.6581573486328125, 0, 0, 0.6581573486328125, -452.95,-66.4) ">
<use xlink:href="#Symbol_14_0_Layer0_1_FILL"/>
</g>

<g transform="matrix( 1, 0, 0, 1, -808.25,98.8) ">
<use xlink:href="#Symbol_14_0_Layer0_2_FILL"/>
</g>

<g transform="matrix( 1, 0, 0, 1, -808.25,84.75) ">
<use xlink:href="#Symbol_14_0_Layer0_3_FILL"/>
</g>
</g>

<g transform="matrix( 1, 0, 0, 1, 855.95,222.9) ">
<g transform="matrix( 0.6581573486328125, 0, 0, 0.6581573486328125, -551.9,-66.4) ">
<use xlink:href="#Symbol_14_0_Layer0_0_FILL"/>
</g>

<g transform="matrix( 0.6581573486328125, 0, 0, 0.6581573486328125, -452.95,-66.4) ">
<use xlink:href="#Symbol_14_0_Layer0_1_FILL"/>
</g>

<g transform="matrix( 1, 0, 0, 1, -808.25,98.8) ">
<use xlink:href="#Symbol_14_0_Layer0_2_FILL"/>
</g>

<g transform="matrix( 1, 0, 0, 1, -808.25,84.75) ">
<use xlink:href="#Symbol_14_0_Layer0_3_FILL"/>
</g>
</g>

<g transform="matrix( 1, 0, 0, 1, 855.95,676.4) ">
<g transform="matrix( 0.6581573486328125, 0, 0, 0.6581573486328125, -551.9,-66.4) ">
<use xlink:href="#Symbol_14_0_Layer0_0_FILL"/>
</g>

<g transform="matrix( 0.6581573486328125, 0, 0, 0.6581573486328125, -452.95,-66.4) ">
<use xlink:href="#Symbol_14_0_Layer0_1_FILL"/>
</g>

<g transform="matrix( 1, 0, 0, 1, -808.25,98.8) ">
<use xlink:href="#Symbol_14_0_Layer0_2_FILL"/>
</g>

<g transform="matrix( 1, 0, 0, 1, -808.25,84.75) ">
<use xlink:href="#Symbol_14_0_Layer0_3_FILL"/>
</g>
</g>

<g transform="matrix( 1, 0, 0, 1, 855.95,789.4) ">
<g transform="matrix( 0.6581573486328125, 0, 0, 0.6581573486328125, -551.9,-66.4) ">
<use xlink:href="#Symbol_14_0_Layer0_0_FILL"/>
</g>

<g transform="matrix( 0.6581573486328125, 0, 0, 0.6581573486328125, -452.95,-66.4) ">
<use xlink:href="#Symbol_14_0_Layer0_1_FILL"/>
</g>

<g transform="matrix( 1, 0, 0, 1, -808.25,98.8) ">
<use xlink:href="#Symbol_14_0_Layer0_2_FILL"/>
</g>

<g transform="matrix( 1, 0, 0, 1, -808.25,84.75) ">
<use xlink:href="#Symbol_14_0_Layer0_3_FILL"/>
</g>
</g>
</g>
</svg>
