
<svg xmlns="http://www.w3.org/2000/svg" version="1.1" xmlns:xlink="http://www.w3.org/1999/xlink" preserveAspectRatio="none" x="0px" y="0px" width="82px" height="82px" viewBox="0 0 82 82">
<defs>
<g id="Symbol_13_copy_0_Layer1_0_FILL">
<path fill="#FFFFFF" stroke="none" d="
M 76.4 36.45
Q 76.4296875 19.887109375 64.7 8.15 53.0150390625 -3.5275390625 36.45 -3.55 19.9005859375 -3.52578125 8.15 8.15
L 8.15 8.15
Q -3.52578125 19.9005859375 -3.55 36.45 -3.5275390625 53.0150390625 8.15 64.7 19.887109375 76.4296875 36.45 76.4 52.9982421875 76.4189453125 64.65 64.7
L 64.7 64.65
Q 76.4189453125 52.9982421875 76.4 36.45
M 59.7 13.15
Q 69.3701171875 22.8126953125 69.35 36.45 69.380859375 50.0841796875 59.7 59.7
L 59.7 59.7
Q 50.0841796875 69.380859375 36.45 69.35 22.8126953125 69.3701171875 13.15 59.7 3.5271484375 50.0845703125 3.5 36.45 3.52578125 22.8171875 13.1 13.15
L 13.15 13.1
Q 22.8171875 3.52578125 36.45 3.5 50.0845703125 3.5271484375 59.7 13.15 Z"/>

<path fill="#5CC066" stroke="none" d="
M 69.35 36.45
Q 69.3701171875 22.8126953125 59.7 13.15 50.0845703125 3.5271484375 36.45 3.5 22.8171875 3.52578125 13.15 13.1
L 13.1 13.15
Q 3.52578125 22.8171875 3.5 36.45 3.5271484375 50.0845703125 13.15 59.7 22.8126953125 69.3701171875 36.45 69.35 50.0841796875 69.380859375 59.7 59.7
L 59.7 59.7
Q 69.380859375 50.0841796875 69.35 36.45 Z"/>
</g>

<g id="Symbol_13_copy_0_Layer0_0_FILL">
<path fill="#FFF6FF" stroke="none" d="
M 39.85 54.45
Q 38.1 52.65 35.6 52.65 33.1 52.65 31.4 54.45 29.65 56.2 29.65 58.65 29.65 61.1 31.4 62.85 33.1 64.65 35.6 64.65 38.1 64.65 39.85 62.85 41.6 61.1 41.6 58.65 41.6 56.2 39.85 54.45
M 43.3 20.85
Q 44.4 21.8 44.95 22.95 45.55 24.15 45.55 25.4 45.55 29.6 40.95 32.05 39.4 32.85 37.55 33.35 36.2 33.7 35.55 33.7 33.5 33.7 32.05 35.2 30.6 36.65 30.6 38.7
L 30.6 45.35
Q 30.6 47.4 32.05 48.85 33.5 50.35 35.55 50.35 37.65 50.35 39.1 48.85 40.55 47.4 40.55 45.35
L 40.55 43.15
Q 42.9 42.65 44.85 41.9 50 39.9 52.75 36.05 55.5 32.25 55.5 27.1 55.5 23.75 54.55 20.7 53.45 17.35 51.35 14.8 49.05 12 45.7 10.5 42 8.8 37.25 8.8 33.95 8.8 30.85 10 27.9 11.15 25.55 13.25 23.2 15.3 21.95 18 20.6 20.75 20.6 23.75 20.6 25.8 22.05 27.25 23.55 28.75 25.6 28.75 27.65 28.75 29.15 27.25 30.6 25.8 30.6 23.75 30.6 23.1 31.05 22.25 31.55 21.35 32.4 20.65 34.45 18.75 37.25 18.75 40.85 18.75 43.3 20.85 Z"/>
</g>
</defs>

<g transform="matrix( 1, 0, 0, 1, 4.5,5.55) ">
<g transform="matrix( 1, 0, 0, 1, 0,0) ">
<use xlink:href="#Symbol_13_copy_0_Layer1_0_FILL"/>
</g>

<g transform="matrix( 1, 0, 0, 1, 0,0) ">
<use xlink:href="#Symbol_13_copy_0_Layer0_0_FILL"/>
</g>
</g>
</svg>
