
<svg xmlns="http://www.w3.org/2000/svg" version="1.1" xmlns:xlink="http://www.w3.org/1999/xlink" preserveAspectRatio="none" x="0px" y="0px" width="97px" height="97px" viewBox="0 0 97 97">
<defs>
<g id="Symbol_4_0_Layer0_0_FILL">
<path fill="#FBB940" stroke="none" d="
M 37.65 -37.7
Q 22.05 -53.25 0 -53.25 -22.05 -53.25 -37.7 -37.7 -53.25 -22.05 -53.25 0 -53.25 22.05 -37.7 37.65 -22.05 53.25 0 53.25 22.05 53.25 37.65 37.65 53.25 22.05 53.25 0 53.25 -22.05 37.65 -37.7 Z"/>
</g>

<g id="Mask_Symbol_2_0_1_MASK_0_FILL">
<path fill="#FFFFFF" stroke="none" d="
M 42.95 -8.75
Q 42.95 -27.85 29.4 -41.45 15.85 -54.95 -3.25 -54.95 -22.4 -54.95 -35.95 -41.45 -49.45 -27.85 -49.45 -8.75 -49.45 10.4 -35.95 23.95 -22.4 37.45 -3.25 37.45 15.85 37.45 29.4 23.95 42.95 10.4 42.95 -8.75 Z"/>
</g>

<g id="Symbol_1_0_Layer0_0_FILL">
<path fill="#53B9C9" stroke="none" d="
M 952 258
L 917 258 917 338 952 338 952 258 Z"/>
</g>

<g id="Symbol_1_0_Layer0_1_FILL">
<path fill="#5CC067" stroke="none" d="
M 952 258
L 917 258 917 338 952 338 952 258 Z"/>
</g>

<g id="Symbol_1_0_Layer0_2_FILL">
<path fill="#D94444" stroke="none" d="
M 952 258
L 917 258 917 338 952 338 952 258 Z"/>
</g>

<g id="Symbol_1_0_Layer0_3_FILL">
<path fill="#970A5F" stroke="none" d="
M 952 258
L 917 258 917 338 952 338 952 258 Z"/>
</g>

<path id="Symbol_4_0_Layer0_0_1_STROKES" stroke="#FFFFFF" stroke-width="7.05" stroke-linejoin="round" stroke-linecap="round" fill="none" d="
M 53.25 0
Q 53.25 22.05 37.65 37.65 22.05 53.25 0 53.25 -22.05 53.25 -37.7 37.65 -53.25 22.05 -53.25 0 -53.25 -22.05 -37.7 -37.7 -22.05 -53.25 0 -53.25 22.05 -53.25 37.65 -37.7 53.25 -22.05 53.25 0 Z"/>
</defs>

<g transform="matrix( 1, 0, 0, 1, 4.9,4.9) ">
<g transform="matrix( 0.8248138427734375, 0, 0, 0.8248138427734375, 43.9,43.9) ">
<g transform="matrix( 1, 0, 0, 1, 0,0) ">
<use xlink:href="#Symbol_4_0_Layer0_0_FILL"/>

<use xlink:href="#Symbol_4_0_Layer0_0_1_STROKES"/>
</g>

<g transform="matrix( 1, 0, 0, 1, 3.5,8.45) ">
<mask id="Mask_Mask_1">
<g transform="matrix( 1, 0, 0, 1, 0,0) ">
<use xlink:href="#Mask_Symbol_2_0_1_MASK_0_FILL"/>
</g>
</mask>

<g mask="url(#Mask_Mask_1)">
<g transform="matrix( 0.6997528076171875, 0, 0, 0.8248748779296875, 0,0) ">
<g transform="matrix( 1, 0, 0, 1, -989,-278.05) ">
<use xlink:href="#Symbol_1_0_Layer0_0_FILL"/>
</g>

<g transform="matrix( 1, 0, 0, 1.4993743896484375, -952.7,-446.8) ">
<use xlink:href="#Symbol_1_0_Layer0_1_FILL"/>
</g>

<g transform="matrix( 1, 0, 0, 0.8249969482421875, -916.4,-218.85) ">
<use xlink:href="#Symbol_1_0_Layer0_2_FILL"/>
</g>

<g transform="matrix( 1, 0, 0, 0.9874114990234375, -880,-273.75) ">
<use xlink:href="#Symbol_1_0_Layer0_3_FILL"/>
</g>
</g>
</g>
</g>
</g>
</g>
</svg>
