
<svg xmlns="http://www.w3.org/2000/svg" version="1.1" xmlns:xlink="http://www.w3.org/1999/xlink" preserveAspectRatio="none" x="0px" y="0px" width="97px" height="97px" viewBox="0 0 97 97">
<defs>
<g id="Symbol_13_0_Layer1_0_FILL">
<path fill="#FFFFFF" stroke="none" d="
M 76.4 36.45
Q 76.4296875 19.887109375 64.7 8.15 53.0150390625 -3.5275390625 36.45 -3.55 19.9005859375 -3.52578125 8.15 8.15
L 8.15 8.15
Q -3.52578125 19.9005859375 -3.55 36.45 -3.5275390625 53.0150390625 8.15 64.7 19.887109375 76.4296875 36.45 76.4 52.9982421875 76.4189453125 64.65 64.7
L 64.7 64.65
Q 76.4189453125 52.9982421875 76.4 36.45
M 59.7 13.15
Q 69.3701171875 22.8126953125 69.35 36.45 69.380859375 50.0841796875 59.7 59.7
L 59.7 59.7
Q 50.0841796875 69.380859375 36.45 69.35 22.8126953125 69.3701171875 13.15 59.7 3.5271484375 50.0845703125 3.5 36.45 3.52578125 22.8171875 13.1 13.15
L 13.15 13.1
Q 22.8171875 3.52578125 36.45 3.5 50.0845703125 3.5271484375 59.7 13.15 Z"/>

<path fill="#D94444" stroke="none" d="
M 69.35 36.45
Q 69.3701171875 22.8126953125 59.7 13.15 50.0845703125 3.5271484375 36.45 3.5 22.8171875 3.52578125 13.15 13.1
L 13.1 13.15
Q 3.52578125 22.8171875 3.5 36.45 3.5271484375 50.0845703125 13.15 59.7 22.8126953125 69.3701171875 36.45 69.35 50.0841796875 69.380859375 59.7 59.7
L 59.7 59.7
Q 69.380859375 50.0841796875 69.35 36.45
M 56.8 40.45
Q 56.5353515625 40.621484375 56.25 40.7
L 56.25 53.05
Q 56.25 54.35 55.8 55.5 55.3 56.65 54.45 57.5 53.55 58.4 52.45 58.85 51.25 59.35 50 59.35
L 24.75 59.35
Q 23.5 59.35 22.3 58.85 21.2 58.4 20.3 57.5 19.45 56.65 18.95 55.5 18.45 54.35 18.45 53.05
L 18.45 40.45 15.15 40.45 14 39.3
Q 13.1 38.4 12.6 37.2 12.15 36.1 12.15 34.9 12.15 33.65 12.6 32.55 13.1 31.35 14 30.5
L 33.8 10.65
Q 34.5 9.95 35.5 9.5 36.35 9.1 37.35 8.95 38.4 9.1 39.3 9.5 40.2 9.95 40.95 10.65
L 60.75 30.5
Q 61.65 31.35 62.15 32.55 62.6 33.65 62.6 34.9 62.6 36.1 62.15 37.2 61.65 38.4 60.75 39.3
L 59.6 40.45 56.8 40.45
M 37.65 23.6
L 24.75 37.1 24.75 49.9
Q 24.75 51.2 25.7 52.15 26.6 53.05 27.9 53.05
L 46.8 53.05
Q 48.1 53.05 49.05 52.15 50 51.2 50 49.9
L 50 37.2 37.65 23.6 Z"/>

<path fill="#FFF6FF" stroke="none" d="
M 56.25 40.7
Q 56.5353515625 40.621484375 56.8 40.45
L 59.6 40.45 60.75 39.3
Q 61.65 38.4 62.15 37.2 62.6 36.1 62.6 34.9 62.6 33.65 62.15 32.55 61.65 31.35 60.75 30.5
L 40.95 10.65
Q 40.2 9.95 39.3 9.5 38.4 9.1 37.35 8.95 36.35 9.1 35.5 9.5 34.5 9.95 33.8 10.65
L 14 30.5
Q 13.1 31.35 12.6 32.55 12.15 33.65 12.15 34.9 12.15 36.1 12.6 37.2 13.1 38.4 14 39.3
L 15.15 40.45 18.45 40.45 18.45 53.05
Q 18.45 54.35 18.95 55.5 19.45 56.65 20.3 57.5 21.2 58.4 22.3 58.85 23.5 59.35 24.75 59.35
L 50 59.35
Q 51.25 59.35 52.45 58.85 53.55 58.4 54.45 57.5 55.3 56.65 55.8 55.5 56.25 54.35 56.25 53.05
L 56.25 40.7
M 24.75 37.1
L 37.65 23.6 50 37.2 50 49.9
Q 50 51.2 49.05 52.15 48.1 53.05 46.8 53.05
L 27.9 53.05
Q 26.6 53.05 25.7 52.15 24.75 51.2 24.75 49.9
L 24.75 37.1 Z"/>
</g>
</defs>

<g transform="matrix( 1, 0, 0, 1, 1,0) ">
<g transform="matrix( 1, 0, 0, 1, 0,0) ">
<g transform="matrix( 1.205169677734375, 0, 0, 1.205169677734375, 4.2,4.2) ">
<g transform="matrix( 1, 0, 0, 1, 0,0) ">
<use xlink:href="#Symbol_13_0_Layer1_0_FILL"/>
</g>
</g>
</g>
</g>
</svg>
