
<svg xmlns="http://www.w3.org/2000/svg" version="1.1" xmlns:xlink="http://www.w3.org/1999/xlink" preserveAspectRatio="none" x="0px" y="0px" width="97px" height="97px" viewBox="0 0 97 97">
<defs>
<g id="Symbol_13_copy_2_0_Layer1_0_FILL">
<path fill="#FFFFFF" stroke="none" d="
M 76.4 36.45
Q 76.4296875 19.887109375 64.7 8.15 53.0150390625 -3.5275390625 36.45 -3.55 19.9005859375 -3.52578125 8.15 8.15
L 8.15 8.15
Q -3.52578125 19.9005859375 -3.55 36.45 -3.5275390625 53.0150390625 8.15 64.7 19.887109375 76.4296875 36.45 76.4 52.9982421875 76.4189453125 64.65 64.7
L 64.7 64.65
Q 76.4189453125 52.9982421875 76.4 36.45
M 59.7 13.15
Q 69.3701171875 22.8126953125 69.35 36.45 69.380859375 50.0841796875 59.7 59.7
L 59.7 59.7
Q 50.0841796875 69.380859375 36.45 69.35 22.8126953125 69.3701171875 13.15 59.7 3.5271484375 50.0845703125 3.5 36.45 3.52578125 22.8171875 13.1 13.15
L 13.15 13.1
Q 22.8171875 3.52578125 36.45 3.5 50.0845703125 3.5271484375 59.7 13.15 Z"/>

<path fill="#53BAC8" stroke="none" d="
M 69.35 36.45
Q 69.3701171875 22.8126953125 59.7 13.15 50.0845703125 3.5271484375 36.45 3.5 22.8171875 3.52578125 13.15 13.1
L 13.1 13.15
Q 3.52578125 22.8171875 3.5 36.45 3.5271484375 50.0845703125 13.15 59.7 22.8126953125 69.3701171875 36.45 69.35 50.0841796875 69.380859375 59.7 59.7
L 59.7 59.7
Q 69.380859375 50.0841796875 69.35 36.45 Z"/>
</g>

<g id="Symbol_13_copy_2_0_Layer0_0_FILL">
<path fill="#FFF6FF" stroke="none" d="
M 44.95 16.4
Q 44.95 13.25 42.7 10.95 40.4 8.65 37.2 8.65 34 8.65 31.75 10.95 29.5 13.25 29.5 16.4 29.5 19.6 31.75 21.8 34 24.2 37.2 24.2 40.4 24.2 42.7 21.8 44.95 19.6 44.95 16.4
M 43.65 34.3
Q 43.65 31.65 41.75 29.7 39.85 27.8 37.2 27.8 34.55 27.8 32.6 29.7 30.7 31.65 30.7 34.3
L 30.7 58.2
Q 30.7 60.75 32.6 62.65 34.55 64.65 37.2 64.65 39.85 64.65 41.75 62.65 43.65 60.75 43.65 58.2
L 43.65 34.3 Z"/>
</g>
</defs>

<g transform="matrix( 1, 0, 0, 1, 1,0) ">
<g transform="matrix( 1.205169677734375, 0, 0, 1.205169677734375, 4.2,4.2) ">
<g transform="matrix( 1, 0, 0, 1, 0,0) ">
<use xlink:href="#Symbol_13_copy_2_0_Layer1_0_FILL"/>
</g>

<g transform="matrix( 1, 0, 0, 1, 0,0) ">
<use xlink:href="#Symbol_13_copy_2_0_Layer0_0_FILL"/>
</g>
</g>
</g>
</svg>
