
<svg xmlns="http://www.w3.org/2000/svg" version="1.1" xmlns:xlink="http://www.w3.org/1999/xlink" preserveAspectRatio="none" x="0px" y="0px" width="96px" height="96px" viewBox="0 0 96 96">
<defs>
<g id="Symbol_3_0_Layer0_0_FILL">
<path fill="#6E3C20" stroke="none" d="
M 1175.7 138.1
Q 1175.7 116.05 1160.1 100.4 1144.5 84.85 1122.45 84.85 1100.4 84.85 1084.75 100.4 1069.2 116.05 1069.2 138.1 1069.2 160.15 1084.75 175.75 1100.4 191.35 1122.45 191.35 1144.5 191.35 1160.1 175.75 1175.7 160.15 1175.7 138.1 Z"/>
</g>

<g id="Symbol_3_0_Layer0_1_FILL">
<path fill="#FFFFFF" stroke="none" d="
M 1131.5 273.65
L 1122.45 282.7 1140.55 300.8 1122.45 318.9 1131.5 327.95 1149.6 309.85 1167.7 327.95 1176.75 318.9 1158.65 300.8 1176.75 282.7 1167.7 273.65 1149.6 291.75 1131.5 273.65 Z"/>
</g>

<path id="Symbol_3_0_Layer0_0_1_STROKES" stroke="#FFFFFF" stroke-width="7.05" stroke-linejoin="round" stroke-linecap="round" fill="none" d="
M 1175.7 138.1
Q 1175.7 160.15 1160.1 175.75 1144.5 191.35 1122.45 191.35 1100.4 191.35 1084.75 175.75 1069.2 160.15 1069.2 138.1 1069.2 116.05 1084.75 100.4 1100.4 84.85 1122.45 84.85 1144.5 84.85 1160.1 100.4 1175.7 116.05 1175.7 138.1 Z"/>
</defs>

<g transform="matrix( 1, 0, 0, 1, 4.9,4.9) ">
<g transform="matrix( 0.8248138427734375, 0, 0, 0.8248138427734375, 43.9,43.9) ">
<g transform="matrix( 1, 0, 0, 1, -1122.45,-138.1) ">
<use xlink:href="#Symbol_3_0_Layer0_0_FILL"/>

<use xlink:href="#Symbol_3_0_Layer0_0_1_STROKES"/>
</g>

<g transform="matrix( 1, 0, 0, 1, -1148.85,-301.3) ">
<use xlink:href="#Symbol_3_0_Layer0_1_FILL"/>
</g>
</g>
</g>
</svg>
