<?xml version="1.0" encoding="UTF-8" standalone="no"?>
<svg
   xmlns:dc="http://purl.org/dc/elements/1.1/"
   xmlns:cc="http://creativecommons.org/ns#"
   xmlns:rdf="http://www.w3.org/1999/02/22-rdf-syntax-ns#"
   xmlns:svg="http://www.w3.org/2000/svg"
   xmlns="http://www.w3.org/2000/svg"
   xmlns:xlink="http://www.w3.org/1999/xlink"
   xmlns:sodipodi="http://sodipodi.sourceforge.net/DTD/sodipodi-0.dtd"
   xmlns:inkscape="http://www.inkscape.org/namespaces/inkscape"
   viewBox="0 0 463.00339 295.00159"
   version="1.1"
   id="svg78"
   sodipodi:docname="bar_chart.svg"
   width="463.00339"
   height="295.00159"
   inkscape:version="0.92.3 (2405546, 2018-03-11)">
  <metadata
     id="metadata82">
    <rdf:RDF>
      <cc:Work
         rdf:about="">
        <dc:format>image/svg+xml</dc:format>
        <dc:type
           rdf:resource="http://purl.org/dc/dcmitype/StillImage" />
        <dc:title></dc:title>
      </cc:Work>
    </rdf:RDF>
  </metadata>
  <sodipodi:namedview
     pagecolor="#ffffff"
     bordercolor="#666666"
     borderopacity="1"
     objecttolerance="10"
     gridtolerance="10"
     guidetolerance="10"
     inkscape:pageopacity="0"
     inkscape:pageshadow="2"
     inkscape:window-width="1366"
     inkscape:window-height="705"
     id="namedview80"
     showgrid="false"
     fit-margin-top="0"
     fit-margin-left="0"
     fit-margin-right="0"
     fit-margin-bottom="0"
     inkscape:zoom="0.475"
     inkscape:cx="318"
     inkscape:cy="62.0016"
     inkscape:window-x="-8"
     inkscape:window-y="-8"
     inkscape:window-maximized="1"
     inkscape:current-layer="svg78" />
  <defs
     id="defs38">
    <linearGradient
       id="l"
       x1="60.967206"
       x2="148.6157"
       y1="137.02659"
       y2="137.02659"
       gradientTransform="matrix(0.79233782,0,0,1.2620879,-2,-7)"
       xlink:href="#a"
       gradientUnits="userSpaceOnUse" />
    <linearGradient
       id="k"
       x1="140.11581"
       x2="57.479979"
       y1="199.57246"
       y2="199.57246"
       gradientTransform="matrix(0.84040085,0,0,1.1899084,-2,-7)"
       xlink:href="#a"
       gradientUnits="userSpaceOnUse" />
    <linearGradient
       id="e"
       x1="432.28104"
       x2="295.23846"
       y1="160.29004"
       y2="160.29004"
       gradientTransform="matrix(0.5067768,0,0,1.9732553,-2,-7)"
       xlink:href="#a"
       gradientUnits="userSpaceOnUse" />
    <linearGradient
       id="j"
       x1="113.5039"
       x2="46.5584"
       y1="243.1667"
       y2="243.1667"
       gradientTransform="matrix(1.0374111,0,0,0.96393803,-2,-7)"
       xlink:href="#d"
       gradientUnits="userSpaceOnUse" />
    <linearGradient
       id="i"
       y1="179.40275"
       y2="179.40275"
       gradientTransform="matrix(1.0374105,0,0,0.96393855,-2,-7)"
       xlink:href="#d"
       x1="46.558039"
       x2="113.50357"
       gradientUnits="userSpaceOnUse" />
    <linearGradient
       id="f"
       x1="482.39637"
       x2="434.89526"
       y1="272.7946"
       y2="272.7946"
       gradientTransform="matrix(0.86795844,0,0,1.1521289,-2,-7)"
       xlink:href="#b"
       gradientUnits="userSpaceOnUse" />
    <linearGradient
       id="h"
       x1="744.60473"
       x2="629.57598"
       y1="134.09791"
       y2="134.09791"
       gradientTransform="matrix(0.60376209,0,0,1.6562815,-2,-7)"
       xlink:href="#c"
       gradientUnits="userSpaceOnUse" />
    <linearGradient
       id="g"
       y1="121.21714"
       y2="121.21714"
       gradientTransform="matrix(0.7009519,0,0,1.4266314,-2,-7)"
       x1="68.906297"
       x2="167.98585"
       gradientUnits="userSpaceOnUse">
      <stop
         stop-color="#729fcf"
         offset="0"
         id="stop9" />
      <stop
         stop-color="#204a87"
         offset="1"
         id="stop11" />
    </linearGradient>
    <linearGradient
       id="m"
       x1="142.84242"
       x2="51.8006"
       y1="221.40374"
       y2="221.40374"
       gradientTransform="matrix(0.93233847,0,0,1.0725718,-2,-7)"
       xlink:href="#c"
       gradientUnits="userSpaceOnUse" />
    <linearGradient
       id="d">
      <stop
         stop-color="#729fcf"
         offset="0"
         id="stop15" />
      <stop
         stop-color="#204a87"
         offset="1"
         id="stop17" />
    </linearGradient>
    <linearGradient
       id="n"
       x1="35.249331"
       x2="126.29114"
       y1="161.23802"
       y2="161.23802"
       gradientTransform="matrix(0.93233847,0,0,1.0725718,-2,-7)"
       xlink:href="#c"
       gradientUnits="userSpaceOnUse" />
    <linearGradient
       id="a">
      <stop
         stop-color="#4e9a06"
         offset="0"
         id="stop21" />
      <stop
         stop-color="#8ae234"
         offset="1"
         id="stop23" />
    </linearGradient>
    <linearGradient
       id="b">
      <stop
         stop-color="#c91414"
         offset="0"
         id="stop26" />
      <stop
         stop-color="#ef2929"
         offset="1"
         id="stop28" />
    </linearGradient>
    <linearGradient
       id="o"
       x1="38.016907"
       x2="56.235499"
       y1="219.72504"
       y2="219.72504"
       gradientTransform="matrix(1.2705533,0,0,0.78705866,-2,-7)"
       xlink:href="#b"
       gradientUnits="userSpaceOnUse" />
    <linearGradient
       id="c">
      <stop
         stop-color="#f57900"
         offset="0"
         id="stop32" />
      <stop
         stop-color="#fcaf3e"
         offset="1"
         id="stop34" />
    </linearGradient>
    <linearGradient
       id="p"
       x1="92.677816"
       x2="38.016592"
       y1="301.71646"
       y2="301.71646"
       gradientTransform="matrix(1.2705533,0,0,0.78705866,-2,-7)"
       xlink:href="#b"
       gradientUnits="userSpaceOnUse" />
  </defs>
  <rect
     x="108.03"
     y="33.801998"
     width="46.299999"
     height="0"
     id="rect40"
     style="fill:#427bc3" />
  <path
     d="m 30.867,140.53 c 0,0 0,-11.472 14.331,-11.472 h 71.655 c 14.331,0 14.331,11.472 14.331,11.472 V 282.7 H 30.864 V 140.53 Z"
     id="path42"
     inkscape:connector-curvature="0"
     style="fill:#204a87" />
  <path
     d="m 331.82,190.93 c 0,0 0,-11.472 14.331,-11.472 h 71.655 c 14.331,0 14.331,11.472 14.331,11.472 v 91.778 H 331.817 V 190.93 Z"
     id="path44"
     inkscape:connector-curvature="0"
     style="fill:#cc0000" />
  <path
     d="m 131.18,11.472 c 0,0 0,-11.472 14.331,-11.472 h 71.655 c 14.331,0 14.331,11.472 14.331,11.472 v 271.24 H 131.177 V 11.472 Z"
     id="path46"
     inkscape:connector-curvature="0"
     style="fill:#4e9a06" />
  <path
     d="m 147.62,14.292 h 69.45 v 270.42 h -69.45 z"
     id="path48"
     inkscape:connector-curvature="0"
     style="fill:url(#e)" />
  <path
     d="m 231.5,91.368 c 0,0 0,-11.472 14.331,-11.472 h 71.655 c 14.331,0 14.331,11.472 14.331,11.472 v 191.34 H 231.497 V 91.368 Z"
     id="path50"
     inkscape:connector-curvature="0"
     style="fill:#f57900" />
  <path
     d="m 246.93,92.188 h 69.45 v 190.52 h -69.45 z"
     id="path52"
     inkscape:connector-curvature="0"
     style="fill:#fcaf3e" />
  <path
     d="m 347.25,190.52 h 69.45 v 92.188 h -69.45 z"
     id="path54"
     inkscape:connector-curvature="0"
     style="fill:url(#f)" />
  <path
     d="m 46.3,141.35 h 69.45 V 282.7 H 46.3 Z"
     id="path56"
     inkscape:connector-curvature="0"
     style="fill:url(#g)" />
  <path
     d="m 7.7167,282.71 h 447.57 c 4.2751,0 7.7167,2.741 7.7167,6.1458 0,3.4048 -3.4416,6.1458 -7.7167,6.1458 H 7.7167 C 3.4417,295.0016 0,292.2606 0,288.8558 0,285.451 3.4416,282.71 7.7167,282.71 Z"
     id="path58"
     inkscape:connector-curvature="0"
     style="fill:#555753" />
  <path
     d="m 246.93,92.188 h 69.45 v 190.52 h -69.45 z"
     id="path60"
     inkscape:connector-curvature="0"
     style="fill:url(#h)" />
  <path
     d="m 46.3,141.35 v 20.358 c 1.4561,-0.30926 2.9579,-0.51584 4.5818,-0.38412 6.3671,0.72748 11.324,4.4076 15.192,8.2585 5.7133,6.3218 11.87,12.353 18.809,17.861 8.9933,7.2919 19.328,13.87 30.867,18.438 v -64.531 h -69.45 z"
     id="path62"
     inkscape:connector-curvature="0"
     style="fill:url(#i)" />
  <path
     d="m 115.75,282.71 v -20.358 c -1.4561,0.30924 -2.9579,0.51581 -4.5818,0.38409 -6.3671,-0.72748 -11.324,-4.4075 -15.192,-8.2584 -5.7133,-6.3218 -11.87,-12.353 -18.809,-17.861 -8.9933,-7.2919 -19.328,-13.87 -30.867,-18.438 v 64.531 h 69.45 z"
     id="path64"
     inkscape:connector-curvature="0"
     style="fill:url(#j)" />
  <path
     d="m 146.62,12.292 v 31.022 c 1.4561,-0.4712 2.9579,-0.78605 4.5818,-0.58533 6.3671,1.1086 11.324,6.7163 15.192,12.584 5.7134,9.6333 11.87,18.824 18.809,27.217 8.9933,11.112 19.328,21.134 30.867,28.095 v -98.333 h -69.45 z"
     id="path66"
     inkscape:connector-curvature="0"
     style="fill:url(#k)" />
  <path
     d="m 216.07,282.71 v -34.9 c -1.4561,0.53008 -2.9579,0.88432 -4.5818,0.65846 -6.3671,-1.2471 -11.324,-7.5558 -15.192,-14.157 -5.7134,-10.837 -11.87,-21.177 -18.809,-30.619 -8.9933,-12.5 -19.328,-23.776 -30.867,-31.607 v 110.62 h 69.45 z"
     id="path68"
     inkscape:connector-curvature="0"
     style="fill:url(#l)" />
  <path
     d="m 246.93,92.188 v 25.205 c 1.4562,-0.38289 2.9579,-0.63868 4.5818,-0.47558 6.3671,0.90074 11.324,5.457 15.192,10.225 5.7133,7.827 11.87,15.294 18.809,22.114 8.9933,9.0281 19.328,17.172 30.867,22.827 v -79.896 h -69.45 z"
     id="path70"
     inkscape:connector-curvature="0"
     style="fill:url(#m)" />
  <path
     d="m 316.38,282.71 v -25.205 c -1.4562,0.38287 -2.9578,0.63867 -4.5818,0.47556 -6.3671,-0.90073 -11.324,-5.4569 -15.192,-10.225 -5.7133,-7.8271 -11.87,-15.294 -18.809,-22.114 -8.9933,-9.0281 -19.328,-17.172 -30.867,-22.827 v 79.896 h 69.45 z"
     id="path72"
     inkscape:connector-curvature="0"
     style="fill:url(#n)" />
  <path
     d="m 416.7,282.71 v -13.572 c -1.4562,0.20612 -2.9579,0.34384 -4.5818,0.25601 -6.3671,-0.48496 -11.324,-2.9384 -15.192,-5.5056 -5.7133,-4.2146 -11.87,-8.2354 -18.809,-11.908 -8.9933,-4.8613 -19.328,-9.2464 -30.867,-12.292 v 43.021 h 69.45 z"
     id="path74"
     inkscape:connector-curvature="0"
     style="fill:url(#o)" />
  <path
     d="m 347.25,190.52 v 13.572 c 1.4562,-0.20612 2.9578,-0.34383 4.5818,-0.25601 6.3671,0.48496 11.324,2.9384 15.192,5.5056 5.7133,4.2146 11.87,8.2354 18.809,11.908 8.9933,4.8613 19.328,9.2464 30.867,12.292 v -43.021 h -69.45 z"
     id="path76"
     inkscape:connector-curvature="0"
     style="fill:url(#p)" />
</svg>
